<svg width="1440" height="339" viewBox="0 0 1440 339" fill="none" xmlns="http://www.w3.org/2000/svg">
<rect width="1440" height="339" fill="#1B1B1B"/>
<circle opacity="0.5" cx="1287" cy="170" r="153" fill="url(#paint0_radial_453_5)"/>
<circle opacity="0.5" cx="117" cy="135" r="117" fill="url(#paint1_radial_453_5)"/>
<g opacity="0.3">
<path d="M1325.04 130.52C1323.2 130.651 1317.52 130.076 1317.16 130.768C1316.79 131.459 1315.23 134.396 1315.23 134.396C1313.56 134.619 1310.09 133.44 1308.1 132.385C1306.12 131.332 1303.19 129.116 1302.44 127.609C1302.44 127.609 1304 124.671 1304.37 123.979C1304.73 123.288 1301.08 118.912 1300.15 117.313C1299.23 115.716 1296.57 116.964 1295.5 117.725C1294.43 118.487 1292.58 129.079 1306.06 136.233C1319.54 143.385 1327.27 135.911 1327.3 134.599C1327.33 133.289 1326.88 130.389 1325.04 130.52Z" fill="#C3E3FF"/>
</g>
<path opacity="0.3" d="M1328 129.5C1339.67 120.5 1372.09 98.7216 1395.5 115.5C1425.5 137 1390.56 196.095 1369 219.5C1334 257.5 1343.5 284.5 1379 307C1407.4 325 1431.17 331.5 1439.5 332.5" stroke="#A8D7FF" stroke-dasharray="4 4"/>
<path opacity="0.3" d="M561.5 71C570.667 54 597.7 18.5 628.5 22.5C667 27.5 696 61 719 76C739.539 89.3947 779 102 816 76C845.6 55.2 896.667 18 918.5 2" stroke="#A8D7FF" stroke-dasharray="4 4"/>
<g opacity="0.3">
<path fill-rule="evenodd" clip-rule="evenodd" d="M550.395 87.0758L546.424 87.9578L548.56 103.448L565.63 81.4561L550.203 83.0585L550.395 87.0758ZM550.223 81.0957L565.13 79.5119C565 79.3363 564.855 79.1695 564.674 79.0288L549.922 67.5781L550.223 81.0957ZM531.355 91.4267L546.141 102.904C546.322 103.045 546.52 103.144 546.722 103.226L544.608 88.3864L531.355 91.4267ZM547.953 67.2459L530.579 89.6289L548.234 85.398L547.953 67.2459Z" fill="#C3E3FF"/>
</g>
<defs>
<radialGradient id="paint0_radial_453_5" cx="0" cy="0" r="1" gradientUnits="userSpaceOnUse" gradientTransform="translate(1287 170) rotate(90) scale(153)">
<stop stop-color="#034FAF" stop-opacity="0.6"/>
<stop offset="1" stop-color="#034FAF" stop-opacity="0"/>
</radialGradient>
<radialGradient id="paint1_radial_453_5" cx="0" cy="0" r="1" gradientUnits="userSpaceOnUse" gradientTransform="translate(117 135) rotate(90) scale(117)">
<stop stop-color="#2C88FC" stop-opacity="0.6"/>
<stop offset="1" stop-color="#2C88FC" stop-opacity="0"/>
</radialGradient>
</defs>
</svg>
