<svg width="82" height="82" viewBox="0 0 82 82" fill="none" xmlns="http://www.w3.org/2000/svg">
<rect x="0.313214" y="19.5223" width="64.3684" height="64.3684" rx="3.75" transform="rotate(-17.363 0.313214 19.5223)" fill="#F3F8FF" fill-opacity="0.5" stroke="#C6D2FF" stroke-width="0.5"/>
<path d="M46.6493 59.7876L31.7403 60.2692L17.9612 26.9355L51.5536 16.4322L59.2124 51.6712L46.6485 59.7851L46.6493 59.7876Z" fill="#353495"/>
<path d="M55.9088 50.3085L49.3652 20.195L35.6343 24.4883L45.7581 56.8666L55.9088 50.3085Z" fill="#3D449C"/>
<path d="M29.8231 40.2662L31.5146 44.3551L40.9261 41.4124L39.6108 37.2058L29.8231 40.2662ZM26.4044 31.9921L28.101 36.0794L38.265 32.9014L36.9497 28.6949L26.4044 31.9921ZM43.0257 48.1274L43.0097 48.1379L37.9312 48.3379L36.5841 45.0775L32.3625 46.3975L35.0163 52.8153L44.3775 52.5125L44.396 52.5012L43.0282 48.1266L43.0257 48.1274Z" fill="#EEEDEA"/>
<path d="M49.3706 34.1541L47.4695 25.4055L36.9342 28.6996L38.2495 32.9062L44.1743 31.0537L45.1372 35.4806L39.5936 37.2139L40.9089 41.4204L46.0862 39.8016L47.3022 45.4078L43.0075 48.1412L44.3754 52.5158L52.2493 47.4297L52.09 46.7002L49.6164 35.3192L49.3663 34.1582L49.3706 34.1541Z" fill="white"/>
</svg>
