<svg width="1440" height="648" viewBox="0 0 1440 648" fill="none" xmlns="http://www.w3.org/2000/svg">
<rect width="1440" height="647" fill="url(#paint0_linear_511_340)"/>
<path d="M720.06 255.988C935.918 255.988 1110.96 431.025 1110.96 647H1222C1222 369.756 997.241 145 720.007 145C442.773 145 218 369.703 218 647H329.043C329.043 431.025 504.082 255.988 720.06 255.988Z" fill="#CAE7F4" fill-opacity="0.3"/>
<path d="M720.033 256C504.07 256 329 431.031 329 646.947H447.128C447.128 496.262 569.315 374.102 720.033 374.102C870.751 374.102 992.832 496.262 992.832 647H1111C1111 431.031 935.93 256 720.033 256Z" fill="#CAE7F4" fill-opacity="0.6"/>
<path d="M720.08 374C569.242 374 447 496.206 447 647H993C993 496.206 870.798 374 720.08 374Z" fill="#CAE7F4"/>
<path d="M720.06 255.988C935.918 255.988 1110.96 431.025 1110.96 647H1222C1222 369.756 997.241 145 720.007 145C442.773 145 218 369.703 218 647H329.043C329.043 431.025 504.082 255.988 720.06 255.988Z" stroke="white" stroke-opacity="0.4" stroke-width="1.5" stroke-miterlimit="10"/>
<path d="M720.033 256C504.07 256 329 431.031 329 646.947H447.128C447.128 496.262 569.315 374.102 720.033 374.102C870.751 374.102 992.832 496.262 992.832 647H1111C1111 431.031 935.93 256 720.033 256Z" stroke="white" stroke-opacity="0.4" stroke-width="1.5" stroke-miterlimit="10"/>
<rect x="200" y="521" width="60" height="60" fill="white" fill-opacity="0.8"/>
<rect x="200.5" y="521.5" width="59" height="59" stroke="#034FAF" stroke-opacity="0.6"/>
<path d="M245.939 561.203C243.893 561.152 242.306 561.357 240.976 561.919C240.592 562.073 239.978 562.073 239.927 562.559C240.132 562.764 240.158 563.096 240.337 563.377C240.644 563.889 241.181 564.58 241.667 564.938C242.204 565.347 242.741 565.756 243.304 566.115C244.302 566.729 245.427 567.087 246.399 567.701C246.962 568.059 247.525 568.519 248.088 568.903C248.369 569.108 248.548 569.44 248.906 569.568V569.491C248.727 569.261 248.676 568.929 248.497 568.673C248.242 568.417 247.986 568.187 247.73 567.931C246.988 566.933 246.067 566.063 245.069 565.347C244.251 564.784 242.46 564.017 242.127 563.07C242.127 563.07 242.102 563.045 242.076 563.019C242.639 562.968 243.304 562.764 243.841 562.61C244.711 562.38 245.504 562.431 246.399 562.201C246.809 562.098 247.218 561.971 247.627 561.843V561.612C247.167 561.152 246.834 560.538 246.348 560.103C245.044 558.977 243.611 557.878 242.127 556.957C241.334 556.445 240.311 556.112 239.467 555.678C239.16 555.524 238.648 555.447 238.469 555.191C238.009 554.629 237.753 553.887 237.42 553.222C236.679 551.815 235.962 550.254 235.323 548.771C234.862 547.773 234.581 546.775 234.018 545.854C231.383 541.506 228.518 538.871 224.118 536.287C223.172 535.75 222.046 535.519 220.844 535.238C220.204 535.212 219.565 535.161 218.925 535.136C218.516 534.957 218.107 534.471 217.748 534.24C216.291 533.319 212.53 531.324 211.455 533.959C210.765 535.622 212.479 537.259 213.067 538.103C213.502 538.692 214.065 539.357 214.372 540.022C214.551 540.456 214.602 540.917 214.781 541.378C215.19 542.503 215.574 543.757 216.111 544.806C216.393 545.343 216.7 545.906 217.058 546.391C217.262 546.673 217.62 546.801 217.697 547.261C217.339 547.773 217.314 548.54 217.109 549.18C216.188 552.071 216.546 555.652 217.851 557.775C218.26 558.414 219.232 559.822 220.537 559.284C221.688 558.824 221.432 557.366 221.765 556.087C221.842 555.78 221.79 555.575 221.944 555.371C221.944 555.396 221.944 555.422 221.944 555.422C222.302 556.138 222.66 556.829 222.993 557.545C223.786 558.798 225.167 560.103 226.318 560.973C226.932 561.433 227.418 562.226 228.186 562.508V562.431H228.134C227.981 562.201 227.751 562.098 227.546 561.919C227.086 561.459 226.574 560.896 226.216 560.384C225.142 558.952 224.195 557.366 223.351 555.729C222.941 554.936 222.583 554.066 222.251 553.273C222.097 552.966 222.097 552.505 221.841 552.352C221.458 552.915 220.895 553.401 220.613 554.092C220.128 555.191 220.076 556.547 219.897 557.954C219.795 557.98 219.846 557.954 219.795 558.005C218.976 557.801 218.695 556.957 218.388 556.24C217.62 554.424 217.493 551.508 218.158 549.41C218.337 548.873 219.104 547.185 218.797 546.673C218.644 546.187 218.132 545.906 217.851 545.522C217.518 545.036 217.16 544.422 216.93 543.885C216.316 542.452 216.009 540.866 215.344 539.433C215.037 538.768 214.5 538.078 214.065 537.464C213.579 536.773 213.042 536.287 212.658 535.468C212.53 535.187 212.351 534.727 212.555 534.419C212.607 534.215 212.709 534.138 212.914 534.087C213.246 533.805 214.193 534.164 214.525 534.317C215.472 534.701 216.265 535.059 217.058 535.596C217.416 535.852 217.8 536.338 218.26 536.466H218.797C219.616 536.645 220.537 536.517 221.304 536.747C222.66 537.182 223.888 537.822 224.988 538.512C228.339 540.636 231.102 543.654 232.969 547.261C233.276 547.849 233.404 548.387 233.686 549.001C234.223 550.254 234.888 551.533 235.425 552.761C235.962 553.963 236.474 555.191 237.241 556.189C237.625 556.726 239.16 557.008 239.851 557.289C240.362 557.519 241.155 557.724 241.616 558.005C242.485 558.542 243.355 559.157 244.174 559.745C244.583 560.052 245.862 560.691 245.939 561.203Z" fill="#00546B"/>
<path d="M219.846 538.972C219.411 538.972 219.104 539.024 218.797 539.1C218.797 539.1 218.797 539.126 218.797 539.151H218.848C219.053 539.561 219.411 539.842 219.667 540.2C219.872 540.609 220.051 541.019 220.255 541.428C220.281 541.403 220.306 541.377 220.306 541.377C220.665 541.121 220.844 540.712 220.844 540.098C220.69 539.919 220.665 539.74 220.537 539.561C220.383 539.305 220.051 539.177 219.846 538.972Z" fill="#00546B"/>
<rect x="690" y="350" width="60" height="60" fill="white" fill-opacity="0.8"/>
<rect x="690.5" y="350.5" width="59" height="59" stroke="#034FAF" stroke-opacity="0.6"/>
<path d="M735.939 390.203C733.893 390.152 732.306 390.357 730.976 390.919C730.592 391.073 729.978 391.073 729.927 391.559C730.132 391.764 730.158 392.096 730.337 392.377C730.644 392.889 731.181 393.58 731.667 393.938C732.204 394.347 732.741 394.756 733.304 395.115C734.302 395.729 735.427 396.087 736.399 396.701C736.962 397.059 737.525 397.519 738.088 397.903C738.369 398.108 738.548 398.44 738.906 398.568V398.491C738.727 398.261 738.676 397.929 738.497 397.673C738.242 397.417 737.986 397.187 737.73 396.931C736.988 395.933 736.067 395.063 735.069 394.347C734.251 393.784 732.46 393.017 732.127 392.07C732.127 392.07 732.102 392.045 732.076 392.019C732.639 391.968 733.304 391.764 733.841 391.61C734.711 391.38 735.504 391.431 736.399 391.201C736.809 391.098 737.218 390.971 737.627 390.843V390.612C737.167 390.152 736.834 389.538 736.348 389.103C735.044 387.977 733.611 386.878 732.127 385.957C731.334 385.445 730.311 385.112 729.467 384.678C729.16 384.524 728.648 384.447 728.469 384.191C728.009 383.629 727.753 382.887 727.42 382.222C726.679 380.815 725.962 379.254 725.323 377.771C724.862 376.773 724.581 375.775 724.018 374.854C721.383 370.506 718.518 367.871 714.118 365.287C713.172 364.75 712.046 364.519 710.844 364.238C710.204 364.212 709.565 364.161 708.925 364.136C708.516 363.957 708.107 363.471 707.748 363.24C706.291 362.319 702.53 360.324 701.455 362.959C700.765 364.622 702.479 366.259 703.067 367.103C703.502 367.692 704.065 368.357 704.372 369.022C704.551 369.456 704.602 369.917 704.781 370.378C705.19 371.503 705.574 372.757 706.111 373.806C706.393 374.343 706.7 374.906 707.058 375.391C707.262 375.673 707.62 375.801 707.697 376.261C707.339 376.773 707.314 377.54 707.109 378.18C706.188 381.071 706.546 384.652 707.851 386.775C708.26 387.414 709.232 388.822 710.537 388.284C711.688 387.824 711.432 386.366 711.765 385.087C711.842 384.78 711.79 384.575 711.944 384.371C711.944 384.396 711.944 384.422 711.944 384.422C712.302 385.138 712.66 385.829 712.993 386.545C713.786 387.798 715.167 389.103 716.318 389.973C716.932 390.433 717.418 391.226 718.186 391.508V391.431H718.134C717.981 391.201 717.751 391.098 717.546 390.919C717.086 390.459 716.574 389.896 716.216 389.384C715.142 387.952 714.195 386.366 713.351 384.729C712.941 383.936 712.583 383.066 712.251 382.273C712.097 381.966 712.097 381.505 711.841 381.352C711.458 381.915 710.895 382.401 710.613 383.092C710.128 384.191 710.076 385.547 709.897 386.954C709.795 386.98 709.846 386.954 709.795 387.005C708.976 386.801 708.695 385.957 708.388 385.24C707.62 383.424 707.493 380.508 708.158 378.41C708.337 377.873 709.104 376.185 708.797 375.673C708.644 375.187 708.132 374.906 707.851 374.522C707.518 374.036 707.16 373.422 706.93 372.885C706.316 371.452 706.009 369.866 705.344 368.433C705.037 367.768 704.5 367.078 704.065 366.464C703.579 365.773 703.042 365.287 702.658 364.468C702.53 364.187 702.351 363.727 702.555 363.419C702.607 363.215 702.709 363.138 702.914 363.087C703.246 362.805 704.193 363.164 704.525 363.317C705.472 363.701 706.265 364.059 707.058 364.596C707.416 364.852 707.8 365.338 708.26 365.466H708.797C709.616 365.645 710.537 365.517 711.304 365.747C712.66 366.182 713.888 366.822 714.988 367.512C718.339 369.636 721.102 372.654 722.969 376.261C723.276 376.849 723.404 377.387 723.686 378.001C724.223 379.254 724.888 380.533 725.425 381.761C725.962 382.963 726.474 384.191 727.241 385.189C727.625 385.726 729.16 386.008 729.851 386.289C730.362 386.519 731.155 386.724 731.616 387.005C732.485 387.542 733.355 388.157 734.174 388.745C734.583 389.052 735.862 389.691 735.939 390.203Z" fill="#00546B"/>
<path d="M709.846 367.972C709.411 367.972 709.104 368.024 708.797 368.1C708.797 368.1 708.797 368.126 708.797 368.151H708.848C709.053 368.561 709.411 368.842 709.667 369.2C709.872 369.609 710.051 370.019 710.255 370.428C710.281 370.403 710.306 370.377 710.306 370.377C710.665 370.121 710.844 369.712 710.844 369.098C710.69 368.919 710.665 368.74 710.537 368.561C710.383 368.305 710.051 368.177 709.846 367.972Z" fill="#00546B"/>
<rect x="1177" y="521" width="60" height="60" fill="white" fill-opacity="0.8"/>
<rect x="1177.5" y="521.5" width="59" height="59" stroke="#034FAF" stroke-opacity="0.6"/>
<path d="M1205.9 532.657C1205.82 532.664 1205.56 532.689 1205.34 532.707C1200.09 533.18 1195.18 536.009 1192.07 540.358C1190.34 542.775 1189.23 545.518 1188.81 548.423C1188.67 549.437 1188.65 549.736 1188.65 551.111C1188.65 552.486 1188.67 552.786 1188.81 553.8C1189.82 560.732 1194.75 566.556 1201.44 568.714C1202.64 569.1 1203.9 569.363 1205.34 569.522C1205.9 569.583 1208.31 569.583 1208.87 569.522C1211.35 569.248 1213.45 568.634 1215.52 567.577C1215.84 567.415 1215.9 567.371 1215.86 567.335C1215.83 567.314 1214.48 565.499 1212.85 563.305L1209.9 559.317L1206.2 553.843C1204.17 550.833 1202.49 548.372 1202.48 548.372C1202.46 548.369 1202.45 550.801 1202.44 553.771C1202.43 558.971 1202.43 559.18 1202.36 559.303C1202.27 559.479 1202.2 559.552 1202.05 559.631C1201.93 559.689 1201.83 559.7 1201.28 559.7H1200.66L1200.49 559.595C1200.39 559.526 1200.31 559.436 1200.25 559.332L1200.18 559.169L1200.18 551.934L1200.19 544.695L1200.31 544.554C1200.36 544.479 1200.49 544.381 1200.57 544.334C1200.72 544.262 1200.78 544.255 1201.4 544.255C1202.14 544.255 1202.26 544.284 1202.45 544.493C1202.51 544.551 1204.51 547.568 1206.91 551.201C1209.3 554.835 1212.58 559.797 1214.19 562.233L1217.11 566.661L1217.26 566.563C1218.57 565.711 1219.96 564.499 1221.05 563.236C1223.39 560.555 1224.89 557.285 1225.4 553.8C1225.54 552.786 1225.56 552.486 1225.56 551.111C1225.56 549.736 1225.54 549.437 1225.4 548.423C1224.39 541.491 1219.46 535.666 1212.77 533.509C1211.59 533.126 1210.33 532.863 1208.93 532.704C1208.58 532.668 1206.2 532.628 1205.9 532.657ZM1213.45 543.822C1213.63 543.908 1213.77 544.074 1213.82 544.248C1213.85 544.341 1213.85 546.348 1213.85 550.869L1213.84 557.358L1212.69 555.604L1211.54 553.85V549.134C1211.54 546.084 1211.56 544.37 1211.58 544.287C1211.64 544.085 1211.76 543.926 1211.94 543.833C1212.08 543.757 1212.14 543.75 1212.71 543.75C1213.24 543.75 1213.33 543.757 1213.45 543.822Z" fill="black"/>
<rect x="412" y="193" width="60" height="60" fill="white" fill-opacity="0.8"/>
<rect x="412.5" y="193.5" width="59" height="59" stroke="#034FAF" stroke-opacity="0.6"/>
<path d="M440.896 204.657C440.817 204.664 440.564 204.689 440.337 204.707C435.094 205.18 430.182 208.009 427.072 212.358C425.34 214.775 424.232 217.518 423.813 220.423C423.665 221.437 423.647 221.736 423.647 223.111C423.647 224.486 423.665 224.786 423.813 225.8C424.816 232.732 429.749 238.556 436.44 240.714C437.638 241.1 438.901 241.363 440.337 241.522C440.896 241.583 443.314 241.583 443.873 241.522C446.352 241.248 448.453 240.634 450.524 239.577C450.841 239.415 450.903 239.371 450.859 239.335C450.831 239.314 449.477 237.499 447.854 235.305L444.902 231.317L441.203 225.843C439.168 222.833 437.493 220.372 437.479 220.372C437.464 220.369 437.45 222.801 437.443 225.771C437.432 230.971 437.428 231.18 437.363 231.303C437.27 231.479 437.197 231.552 437.046 231.631C436.93 231.689 436.829 231.7 436.284 231.7H435.66L435.494 231.595C435.386 231.526 435.307 231.436 435.252 231.332L435.177 231.169L435.184 223.934L435.195 216.695L435.307 216.554C435.364 216.479 435.487 216.381 435.574 216.334C435.722 216.262 435.779 216.255 436.404 216.255C437.14 216.255 437.262 216.284 437.454 216.493C437.508 216.551 439.511 219.568 441.907 223.201C444.303 226.835 447.579 231.797 449.189 234.233L452.112 238.661L452.26 238.563C453.57 237.711 454.955 236.499 456.052 235.236C458.387 232.555 459.892 229.285 460.397 225.8C460.545 224.786 460.563 224.486 460.563 223.111C460.563 221.736 460.545 221.437 460.397 220.423C459.394 213.491 454.461 207.666 447.771 205.509C446.591 205.126 445.335 204.863 443.927 204.704C443.581 204.668 441.196 204.628 440.896 204.657ZM448.453 215.822C448.626 215.908 448.767 216.074 448.817 216.248C448.846 216.341 448.853 218.348 448.846 222.869L448.835 229.358L447.691 227.604L446.544 225.85V221.134C446.544 218.084 446.558 216.37 446.58 216.287C446.637 216.085 446.764 215.926 446.937 215.833C447.085 215.757 447.139 215.75 447.706 215.75C448.24 215.75 448.333 215.757 448.453 215.822Z" fill="black"/>
<rect x="956" y="567" width="60" height="60" fill="white" fill-opacity="0.8"/>
<rect x="956.5" y="567.5" width="59" height="59" stroke="#034FAF" stroke-opacity="0.6"/>
<path d="M986.103 575C985.522 575 984.958 575.12 984.458 575.403L968.645 584.534C967.622 585.124 967 586.237 967 587.422V605.652C967 606.836 967.622 607.948 968.645 608.539L972.775 610.923C974.781 611.912 975.521 611.897 976.434 611.897C979.405 611.897 981.101 610.094 981.101 606.962V588.966C981.101 588.712 980.88 588.53 980.631 588.53H978.65C978.396 588.53 978.18 588.712 978.18 588.966V606.962C978.18 608.35 976.734 609.747 974.387 608.573L970.089 606.055C969.937 605.973 969.82 605.826 969.82 605.652V587.422C969.82 587.249 969.935 587.073 970.089 586.985L985.868 577.888C985.939 577.846 986.02 577.824 986.103 577.824C986.186 577.824 986.267 577.846 986.338 577.888L1002.12 586.986C1002.27 587.076 1002.39 587.244 1002.39 587.423V605.653C1002.39 605.827 1002.3 606.005 1002.15 606.089L986.338 615.187C986.203 615.268 986.016 615.268 985.868 615.187L981.806 612.77C981.744 612.737 981.675 612.719 981.604 612.719C981.534 612.719 981.465 612.737 981.403 612.77C980.282 613.406 980.071 613.479 979.019 613.844C978.76 613.935 978.367 614.075 979.153 614.516L984.458 617.638C984.958 617.926 985.526 618.077 986.103 618.075C986.681 618.078 987.248 617.928 987.748 617.638L1003.56 608.54C1004.58 607.945 1005.21 606.837 1005.21 605.653V587.422C1005.21 586.238 1004.58 585.126 1003.56 584.535L987.748 575.404C987.252 575.12 986.684 575 986.103 575L986.103 575Z" fill="#83CD29"/>
<path d="M990.333 588.026C985.83 588.026 983.149 589.942 983.149 593.129C983.149 596.586 985.81 597.536 990.132 597.963C995.302 598.47 995.705 599.229 995.705 600.247C995.705 602.012 994.297 602.764 990.971 602.764C986.792 602.764 985.874 601.721 985.566 599.642C985.53 599.419 985.358 599.239 985.129 599.239H983.081C982.829 599.239 982.612 599.457 982.612 599.709C982.612 602.371 984.059 605.517 990.971 605.517C995.975 605.517 998.861 603.553 998.861 600.112C998.861 596.701 996.53 595.785 991.676 595.144C986.772 594.495 986.304 594.177 986.304 593.028C986.304 592.08 986.701 590.812 990.333 590.812C993.578 590.812 994.777 591.512 995.269 593.7C995.311 593.905 995.492 594.069 995.705 594.069H997.753C997.879 594.069 998.001 593.992 998.089 593.901C998.175 593.804 998.235 593.696 998.223 593.566C997.906 589.798 995.394 588.026 990.333 588.026Z" fill="#83CD29"/>
<rect x="931" y="302" width="60" height="60" fill="white" fill-opacity="0.8"/>
<rect x="931.5" y="302.5" width="59" height="59" stroke="#034FAF" stroke-opacity="0.6"/>
<path d="M961.103 310C960.522 310 959.958 310.12 959.458 310.403L943.645 319.534C942.622 320.124 942 321.237 942 322.422V340.652C942 341.836 942.622 342.948 943.645 343.539L947.775 345.923C949.781 346.912 950.521 346.897 951.434 346.897C954.405 346.897 956.101 345.094 956.101 341.962V323.966C956.101 323.712 955.88 323.53 955.631 323.53H953.65C953.396 323.53 953.18 323.712 953.18 323.966V341.962C953.18 343.35 951.734 344.747 949.387 343.573L945.089 341.055C944.937 340.973 944.82 340.826 944.82 340.652V322.422C944.82 322.249 944.935 322.073 945.089 321.985L960.868 312.888C960.939 312.846 961.02 312.824 961.103 312.824C961.186 312.824 961.267 312.846 961.338 312.888L977.117 321.986C977.268 322.076 977.386 322.244 977.386 322.423V340.653C977.386 340.827 977.299 341.005 977.151 341.089L961.338 350.187C961.203 350.268 961.016 350.268 960.868 350.187L956.806 347.77C956.744 347.737 956.675 347.719 956.604 347.719C956.534 347.719 956.465 347.737 956.403 347.77C955.282 348.406 955.071 348.479 954.019 348.844C953.76 348.935 953.367 349.075 954.153 349.516L959.458 352.638C959.958 352.926 960.526 353.077 961.103 353.075C961.681 353.078 962.248 352.928 962.748 352.638L978.561 343.54C979.584 342.945 980.206 341.837 980.206 340.653V322.422C980.206 321.238 979.584 320.126 978.561 319.535L962.748 310.404C962.252 310.12 961.684 310 961.103 310L961.103 310Z" fill="#83CD29"/>
<path d="M965.333 323.026C960.83 323.026 958.149 324.942 958.149 328.129C958.149 331.586 960.81 332.536 965.132 332.963C970.302 333.47 970.705 334.229 970.705 335.247C970.705 337.012 969.297 337.764 965.971 337.764C961.792 337.764 960.874 336.721 960.566 334.642C960.53 334.419 960.358 334.239 960.129 334.239H958.081C957.829 334.239 957.612 334.457 957.612 334.709C957.612 337.371 959.059 340.517 965.971 340.517C970.975 340.517 973.861 338.553 973.861 335.112C973.861 331.701 971.53 330.785 966.676 330.144C961.772 329.495 961.304 329.177 961.304 328.028C961.304 327.08 961.701 325.812 965.333 325.812C968.578 325.812 969.777 326.512 970.269 328.7C970.311 328.905 970.492 329.069 970.705 329.069H972.753C972.879 329.069 973.001 328.992 973.089 328.901C973.175 328.804 973.235 328.696 973.223 328.566C972.906 324.798 970.394 323.026 965.333 323.026Z" fill="#83CD29"/>
<rect x="422" y="567" width="60" height="60" fill="white" fill-opacity="0.8"/>
<rect x="422.5" y="567.5" width="59" height="59" stroke="#034FAF" stroke-opacity="0.6"/>
<path d="M465.295 590.614C464.866 590.465 464.419 590.326 463.96 590.193C464.036 589.885 464.105 589.582 464.166 589.282C465.178 584.373 464.517 580.419 462.258 579.117C460.093 577.868 456.552 579.171 452.976 582.282C452.633 582.581 452.287 582.897 451.942 583.229C451.712 583.009 451.483 582.798 451.255 582.594C447.509 579.268 443.753 577.865 441.498 579.171C439.334 580.423 438.695 584.14 439.604 588.792C439.692 589.242 439.795 589.701 439.911 590.168C439.38 590.318 438.866 590.48 438.376 590.651C433.983 592.182 431.177 594.583 431.177 597.073C431.177 599.563 434.188 602.224 438.765 603.789C439.127 603.912 439.501 604.03 439.887 604.14C439.762 604.645 439.652 605.139 439.562 605.622C438.693 610.193 439.371 613.822 441.529 615.067C443.757 616.353 447.496 615.03 451.138 611.848C451.426 611.596 451.714 611.33 452.003 611.049C452.377 611.411 452.752 611.752 453.125 612.072C456.651 615.108 460.135 616.333 462.289 615.084C464.515 613.794 465.238 609.896 464.298 605.152C464.227 604.79 464.142 604.419 464.048 604.043C464.311 603.965 464.568 603.885 464.82 603.802C469.576 602.226 472.673 599.677 472.673 597.071C472.673 594.465 469.777 592.155 465.295 590.612V590.614ZM454.14 583.619C457.204 580.952 460.067 579.9 461.373 580.653C462.763 581.453 463.303 584.686 462.43 588.924C462.375 589.194 462.313 589.47 462.243 589.749C460.522 589.352 458.653 589.057 456.695 588.873C455.555 587.249 454.374 585.773 453.187 584.495C453.507 584.188 453.824 583.896 454.142 583.619H454.14ZM444.368 597.115C444.905 595.999 445.494 594.878 446.133 593.769C446.774 592.658 447.448 591.585 448.146 590.566C449.38 590.472 450.645 590.425 451.924 590.425C453.209 590.425 454.476 590.474 455.709 590.568C456.396 591.582 457.064 592.649 457.709 593.76C458.359 594.884 458.958 595.997 459.498 597.089C458.959 598.201 458.363 599.325 457.714 600.448C457.066 601.572 456.399 602.647 455.723 603.661C454.491 603.749 453.22 603.795 451.924 603.795C450.627 603.795 449.376 603.754 448.166 603.675C447.463 602.649 446.783 601.572 446.139 600.458C445.496 599.347 444.905 598.228 444.368 597.113V597.115ZM443.428 599.2C443.799 599.918 444.192 600.634 444.605 601.347C445.026 602.072 445.461 602.785 445.907 603.477C444.548 603.324 443.266 603.121 442.084 602.862C442.451 601.679 442.901 600.448 443.428 599.198V599.2ZM443.426 595.031C442.91 593.806 442.467 592.603 442.107 591.44C443.292 591.176 444.554 590.959 445.871 590.794C445.435 591.473 445.009 592.171 444.598 592.884C444.188 593.595 443.797 594.313 443.426 595.031ZM459.251 601.335C459.674 600.603 460.076 599.868 460.454 599.137C461.009 600.401 461.477 601.624 461.848 602.788C460.645 603.062 459.347 603.284 457.977 603.447C458.408 602.764 458.833 602.061 459.251 601.335ZM460.438 595.033C460.061 594.318 459.663 593.598 459.244 592.873C458.833 592.164 458.412 591.472 457.982 590.798C459.307 590.965 460.576 591.187 461.766 591.459C461.407 592.605 460.963 593.804 460.438 595.033ZM451.944 585.764C452.761 586.649 453.58 587.639 454.386 588.711C453.575 588.673 452.754 588.652 451.926 588.652C451.097 588.652 450.289 588.673 449.483 588.709C450.289 587.646 451.116 586.658 451.946 585.762L451.944 585.764ZM442.387 580.706C443.775 579.901 446.846 581.047 450.08 583.922C450.287 584.105 450.495 584.298 450.702 584.496C449.496 585.791 448.306 587.264 447.167 588.871C445.215 589.051 443.347 589.343 441.63 589.732C441.522 589.297 441.426 588.871 441.345 588.454C440.565 584.469 441.083 581.462 442.387 580.708V580.706ZM440.363 602.432C440.01 602.331 439.667 602.224 439.338 602.111C437.314 601.418 435.643 600.52 434.499 599.539C433.47 598.658 432.951 597.784 432.951 597.073C432.951 595.561 435.204 593.635 438.962 592.324C439.417 592.164 439.894 592.015 440.39 591.874C440.91 593.563 441.591 595.328 442.412 597.115C441.58 598.928 440.888 600.722 440.365 602.43L440.363 602.432ZM449.97 610.513C448.359 611.919 446.747 612.918 445.325 613.42C444.047 613.872 443.029 613.884 442.414 613.53C441.105 612.775 440.561 609.861 441.303 605.951C441.388 605.503 441.489 605.043 441.606 604.573C443.307 604.95 445.187 605.22 447.198 605.383C448.346 606.999 449.549 608.483 450.761 609.783C450.497 610.039 450.232 610.283 449.97 610.511V610.513ZM451.995 608.509C451.154 607.602 450.317 606.599 449.498 605.521C450.293 605.552 451.103 605.569 451.926 605.569C452.748 605.569 453.608 605.55 454.431 605.514C453.622 606.612 452.807 607.616 451.995 608.511V608.509ZM462.761 610.975C462.513 612.307 462.017 613.196 461.402 613.552C460.094 614.309 457.297 613.324 454.282 610.729C453.937 610.432 453.588 610.114 453.239 609.778C454.409 608.5 455.577 607.012 456.717 605.361C458.723 605.183 460.618 604.893 462.337 604.494C462.421 604.836 462.497 605.17 462.561 605.499C462.976 607.596 463.035 609.493 462.761 610.975ZM464.265 602.122C464.037 602.197 463.806 602.268 463.567 602.34C463.042 600.678 462.333 598.909 461.466 597.082C462.295 595.299 462.976 593.554 463.486 591.901C463.911 592.024 464.322 592.153 464.721 592.291C468.561 593.613 470.902 595.567 470.902 597.073C470.902 598.676 468.373 600.759 464.265 602.122Z" fill="#53C1DE"/>
<path d="M451.824 600.53C453.871 600.53 455.53 598.87 455.53 596.824C455.53 594.777 453.871 593.117 451.824 593.117C449.777 593.117 448.118 594.777 448.118 596.824C448.118 598.87 449.777 600.53 451.824 600.53Z" fill="#53C1DE"/>
<rect x="452" y="302" width="60" height="60" fill="white" fill-opacity="0.8"/>
<rect x="452.5" y="302.5" width="59" height="59" stroke="#034FAF" stroke-opacity="0.6"/>
<path d="M495.295 325.614C494.866 325.465 494.419 325.326 493.96 325.193C494.036 324.885 494.105 324.582 494.166 324.282C495.178 319.373 494.517 315.419 492.258 314.117C490.093 312.868 486.552 314.171 482.976 317.282C482.633 317.581 482.287 317.897 481.942 318.229C481.712 318.009 481.483 317.798 481.255 317.594C477.509 314.268 473.753 312.865 471.498 314.171C469.334 315.423 468.695 319.14 469.604 323.792C469.692 324.242 469.795 324.701 469.911 325.168C469.38 325.318 468.866 325.48 468.376 325.651C463.983 327.182 461.177 329.583 461.177 332.073C461.177 334.563 464.188 337.224 468.765 338.789C469.127 338.912 469.501 339.03 469.887 339.14C469.762 339.645 469.652 340.139 469.562 340.622C468.693 345.193 469.371 348.822 471.529 350.067C473.757 351.353 477.496 350.03 481.138 346.848C481.426 346.596 481.714 346.33 482.003 346.049C482.377 346.411 482.752 346.752 483.125 347.072C486.651 350.108 490.135 351.333 492.289 350.084C494.515 348.794 495.238 344.896 494.298 340.152C494.227 339.79 494.142 339.419 494.048 339.043C494.311 338.965 494.568 338.885 494.82 338.802C499.576 337.226 502.673 334.677 502.673 332.071C502.673 329.465 499.777 327.155 495.295 325.612V325.614ZM484.14 318.619C487.204 315.952 490.067 314.9 491.373 315.653C492.763 316.453 493.303 319.686 492.43 323.924C492.375 324.194 492.313 324.47 492.243 324.749C490.522 324.352 488.653 324.057 486.695 323.873C485.555 322.249 484.374 320.773 483.187 319.495C483.507 319.188 483.824 318.896 484.142 318.619H484.14ZM474.368 332.115C474.905 330.999 475.494 329.878 476.133 328.769C476.774 327.658 477.448 326.585 478.146 325.566C479.38 325.472 480.645 325.425 481.924 325.425C483.209 325.425 484.476 325.474 485.709 325.568C486.396 326.582 487.064 327.649 487.709 328.76C488.359 329.884 488.958 330.997 489.498 332.089C488.959 333.201 488.363 334.325 487.714 335.448C487.066 336.572 486.399 337.647 485.723 338.661C484.491 338.749 483.22 338.795 481.924 338.795C480.627 338.795 479.376 338.754 478.166 338.675C477.463 337.649 476.783 336.572 476.139 335.458C475.496 334.347 474.905 333.228 474.368 332.113V332.115ZM473.428 334.2C473.799 334.918 474.192 335.634 474.605 336.347C475.026 337.072 475.461 337.785 475.907 338.477C474.548 338.324 473.266 338.121 472.084 337.862C472.451 336.679 472.901 335.448 473.428 334.198V334.2ZM473.426 330.031C472.91 328.806 472.467 327.603 472.107 326.44C473.292 326.176 474.554 325.959 475.871 325.794C475.435 326.473 475.009 327.171 474.598 327.884C474.188 328.595 473.797 329.313 473.426 330.031ZM489.251 336.335C489.674 335.603 490.076 334.868 490.454 334.137C491.009 335.401 491.477 336.624 491.848 337.788C490.645 338.062 489.347 338.284 487.977 338.447C488.408 337.764 488.833 337.061 489.251 336.335ZM490.438 330.033C490.061 329.318 489.663 328.598 489.244 327.873C488.833 327.164 488.412 326.472 487.982 325.798C489.307 325.965 490.576 326.187 491.766 326.459C491.407 327.605 490.963 328.804 490.438 330.033ZM481.944 320.764C482.761 321.649 483.58 322.639 484.386 323.711C483.575 323.673 482.754 323.652 481.926 323.652C481.097 323.652 480.289 323.673 479.483 323.709C480.289 322.646 481.116 321.658 481.946 320.762L481.944 320.764ZM472.387 315.706C473.775 314.901 476.846 316.047 480.08 318.922C480.287 319.105 480.495 319.298 480.702 319.496C479.496 320.791 478.306 322.264 477.167 323.871C475.215 324.051 473.347 324.343 471.63 324.732C471.522 324.297 471.426 323.871 471.345 323.454C470.565 319.469 471.083 316.462 472.387 315.708V315.706ZM470.363 337.432C470.01 337.331 469.667 337.224 469.338 337.111C467.314 336.418 465.643 335.52 464.499 334.539C463.47 333.658 462.951 332.784 462.951 332.073C462.951 330.561 465.204 328.635 468.962 327.324C469.417 327.164 469.894 327.015 470.39 326.874C470.91 328.563 471.591 330.328 472.412 332.115C471.58 333.928 470.888 335.722 470.365 337.43L470.363 337.432ZM479.97 345.513C478.359 346.919 476.747 347.918 475.325 348.42C474.047 348.872 473.029 348.884 472.414 348.53C471.105 347.775 470.561 344.861 471.303 340.951C471.388 340.503 471.489 340.043 471.606 339.573C473.307 339.95 475.187 340.22 477.198 340.383C478.346 341.999 479.549 343.483 480.761 344.783C480.497 345.039 480.232 345.283 479.97 345.511V345.513ZM481.995 343.509C481.154 342.602 480.317 341.599 479.498 340.521C480.293 340.552 481.103 340.569 481.926 340.569C482.748 340.569 483.608 340.55 484.431 340.514C483.622 341.612 482.807 342.616 481.995 343.511V343.509ZM492.761 345.975C492.513 347.307 492.017 348.196 491.402 348.552C490.094 349.309 487.297 348.324 484.282 345.729C483.937 345.432 483.588 345.114 483.239 344.778C484.409 343.5 485.577 342.012 486.717 340.361C488.723 340.183 490.618 339.893 492.337 339.494C492.421 339.836 492.497 340.17 492.561 340.499C492.976 342.596 493.035 344.493 492.761 345.975ZM494.265 337.122C494.037 337.197 493.806 337.268 493.567 337.34C493.042 335.678 492.333 333.909 491.466 332.082C492.295 330.299 492.976 328.554 493.486 326.901C493.911 327.024 494.322 327.153 494.721 327.291C498.561 328.613 500.902 330.567 500.902 332.073C500.902 333.676 498.373 335.759 494.265 337.122Z" fill="#53C1DE"/>
<path d="M481.824 335.53C483.871 335.53 485.53 333.87 485.53 331.824C485.53 329.777 483.871 328.117 481.824 328.117C479.777 328.117 478.118 329.777 478.118 331.824C478.118 333.87 479.777 335.53 481.824 335.53Z" fill="#53C1DE"/>
<rect x="881" y="422" width="60" height="60" fill="white" fill-opacity="0.8"/>
<rect x="881.5" y="422.5" width="59" height="59" stroke="#034FAF" stroke-opacity="0.6"/>
<path d="M911.021 470.568L897.731 466.88L894.765 433.647H927.322L924.356 466.875" fill="#D8BA33"/>
<path d="M921.82 464.756L924.35 436.361H911.043V467.744" fill="#FCDB41"/>
<path d="M920.892 444.314L921.242 440.438H911.782V442.476V444.515V448.689V450.779V452.766L916.982 452.428L916.512 457.885L911.782 459.076V463.313L919.386 461.2L919.444 460.513L920.406 449.782L920.503 448.689H919.404H915.241L915.436 444.434L920.892 444.314Z" fill="#EBEBEB"/>
<path d="M907.322 458.234L904.9 457.547L904.734 455.268L902.106 454.804L902.678 461.2L910.174 463.284V461.326V459.047V440.438H906.709L907.322 458.234Z" fill="#EBEBEB"/>
<rect x="503" y="422" width="60" height="60" fill="white" fill-opacity="0.8"/>
<rect x="503.5" y="422.5" width="59" height="59" stroke="#034FAF" stroke-opacity="0.6"/>
<path d="M532.93 439.647C527.396 439.647 523.936 442.421 522.553 447.967C524.628 445.193 527.049 444.153 529.817 444.847C531.396 445.242 532.524 446.391 533.773 447.662C535.808 449.732 538.162 452.127 543.306 452.127C548.84 452.127 552.3 449.353 553.683 443.807C551.608 446.581 549.187 447.621 546.419 446.927C544.84 446.532 543.712 445.383 542.463 444.113C540.428 442.042 538.073 439.647 532.93 439.647ZM522.553 452.127C517.019 452.127 513.56 454.901 512.177 460.447C514.252 457.673 516.672 456.633 519.44 457.327C521.019 457.722 522.148 458.871 523.396 460.142C525.431 462.212 527.785 464.607 532.93 464.607C538.463 464.607 541.923 461.833 543.306 456.287C541.231 459.061 538.81 460.101 536.043 459.407C534.463 459.012 533.335 457.863 532.087 456.593C530.052 454.522 527.698 452.127 522.553 452.127Z" fill="url(#paint1_linear_511_340)"/>
<rect x="339" y="459" width="60" height="60" fill="white" fill-opacity="0.8"/>
<rect x="339.5" y="459.5" width="59" height="59" stroke="#034FAF" stroke-opacity="0.6"/>
<path d="M369.022 507.568L355.727 503.877L352.765 470.647H385.319L382.353 503.872L369.022 507.568Z" fill="#F73311"/>
<path d="M382.353 503.872L385.319 470.647H369.028L369.022 507.568L382.354 503.872H382.353Z" fill="#FE4B16"/>
<path d="M369.042 489.764V485.689H363.649L363.277 481.515H369.042V477.44H358.823L358.92 478.533L359.922 489.765H369.042L369.042 489.764Z" fill="#EBEBEB"/>
<path d="M369.042 496.273L369.024 496.278L364.485 495.052L364.195 491.802H360.104L360.675 498.201L369.023 500.518L369.042 500.513V496.273H369.042Z" fill="#EBEBEB"/>
<path d="M378.501 485.689H369.028V489.764H374.046L373.573 495.05L369.028 496.276V500.516L377.382 498.201L377.444 497.512L378.402 486.783L378.501 485.689V485.689Z" fill="white"/>
<path d="M379.237 477.439H369.028V481.514H378.872L378.954 480.598L379.14 478.532L379.237 477.439L379.237 477.439Z" fill="white"/>
<rect x="953" y="193" width="60" height="60" fill="white" fill-opacity="0.8"/>
<rect x="953.5" y="193.5" width="59" height="59" stroke="#034FAF" stroke-opacity="0.6"/>
<path d="M983.022 241.568L969.727 237.877L966.765 204.647H999.319L996.353 237.872L983.022 241.568Z" fill="#F73311"/>
<path d="M996.353 237.872L999.319 204.647H983.028L983.022 241.568L996.354 237.872H996.353Z" fill="#FE4B16"/>
<path d="M983.042 223.764V219.689H977.649L977.277 215.515H983.042V211.44H972.823L972.92 212.533L973.922 223.765H983.042L983.042 223.764Z" fill="#EBEBEB"/>
<path d="M983.042 230.273L983.024 230.278L978.485 229.052L978.195 225.802H974.104L974.675 232.201L983.023 234.518L983.042 234.513V230.273H983.042Z" fill="#EBEBEB"/>
<path d="M992.501 219.689H983.028V223.764H988.046L987.573 229.05L983.028 230.276V234.516L991.382 232.201L991.444 231.512L992.402 220.783L992.501 219.689V219.689Z" fill="white"/>
<path d="M993.237 211.439H983.028V215.514H992.872L992.954 214.598L993.14 212.532L993.237 211.439L993.237 211.439Z" fill="white"/>
<rect x="1042" y="459" width="60" height="60" rx="2" fill="white" fill-opacity="0.8"/>
<rect x="1042.5" y="459.5" width="59" height="59" rx="1.5" stroke="#034FAF" stroke-opacity="0.6"/>
<path d="M1089.84 479C1089.86 479.049 1089.86 479.1 1089.86 479.151V487.076C1089.86 487.177 1089.84 487.277 1089.79 487.365C1089.74 487.453 1089.66 487.526 1089.57 487.577L1083.92 490.83C1083.31 491.187 1082.92 491.848 1082.92 492.563V498.997C1082.92 499.204 1082.81 499.395 1082.63 499.499L1068.75 507.491C1068.72 507.509 1068.68 507.521 1068.65 507.533C1068.64 507.538 1068.62 507.546 1068.61 507.549C1068.51 507.575 1068.41 507.575 1068.31 507.549C1068.3 507.545 1068.28 507.536 1068.27 507.53C1068.24 507.519 1068.2 507.509 1068.17 507.491L1054.29 499.499C1054.2 499.448 1054.13 499.375 1054.08 499.287C1054.03 499.199 1054 499.099 1054 498.997V475.222C1054 475.17 1054.01 475.12 1054.02 475.07C1054.02 475.054 1054.03 475.039 1054.04 475.022C1054.05 474.992 1054.06 474.961 1054.08 474.933C1054.09 474.914 1054.1 474.899 1054.12 474.881C1054.13 474.858 1054.15 474.834 1054.17 474.814C1054.18 474.797 1054.21 474.785 1054.23 474.771C1054.25 474.753 1054.27 474.735 1054.29 474.721L1061.23 470.724C1061.32 470.674 1061.42 470.647 1061.52 470.647C1061.62 470.647 1061.72 470.674 1061.81 470.724L1068.75 474.721C1068.75 474.721 1068.75 474.721 1068.75 474.721C1068.75 474.721 1068.75 474.721 1068.75 474.721C1068.77 474.736 1068.79 474.754 1068.82 474.77C1068.83 474.784 1068.85 474.797 1068.87 474.813C1068.89 474.834 1068.91 474.858 1068.92 474.881C1068.94 474.899 1068.95 474.914 1068.96 474.933C1068.98 474.961 1068.99 474.992 1069 475.022C1069.01 475.039 1069.02 475.054 1069.02 475.071C1069.03 475.12 1069.04 475.171 1069.04 475.222V486.612C1069.04 488.151 1070.71 489.113 1072.04 488.346L1073.82 487.318C1074.44 486.961 1074.82 486.3 1074.82 485.585V479.15C1074.82 479.099 1074.83 479.048 1074.84 479C1074.85 478.982 1074.86 478.967 1074.86 478.951C1074.88 478.92 1074.89 478.889 1074.9 478.861C1074.91 478.842 1074.93 478.827 1074.94 478.81C1074.96 478.787 1074.97 478.763 1074.99 478.743C1075.01 478.726 1075.03 478.714 1075.05 478.699C1075.07 478.682 1075.09 478.663 1075.11 478.649L1082.06 474.653C1082.14 474.602 1082.24 474.576 1082.35 474.576C1082.45 474.576 1082.55 474.602 1082.63 474.653L1089.58 478.649C1089.6 478.664 1089.62 478.682 1089.64 478.699C1089.66 478.713 1089.68 478.726 1089.7 478.742C1089.72 478.763 1089.73 478.787 1089.75 478.81C1089.76 478.827 1089.78 478.842 1089.79 478.861C1089.8 478.889 1089.81 478.92 1089.82 478.951C1089.83 478.967 1089.84 478.982 1089.84 479ZM1088.71 486.741C1088.71 486.741 1088.71 486.741 1088.71 486.741V482.954C1088.71 481.707 1087.36 480.928 1086.28 481.549L1083.92 482.905C1083.3 483.262 1082.92 483.923 1082.92 484.638V487.962C1082.92 488.9 1083.94 489.487 1084.75 489.019L1088.71 486.742C1088.71 486.742 1088.71 486.741 1088.71 486.741ZM1080.76 499.24C1081.38 498.883 1081.77 498.222 1081.77 497.506V495.514C1081.77 493.978 1080.11 493.015 1078.77 493.777L1078.47 493.953L1070.05 498.757C1069.42 499.113 1069.04 499.776 1069.04 500.494V502.531C1069.04 504.069 1070.7 505.031 1072.04 504.264L1080.76 499.24ZM1057.59 477.62C1056.51 476.998 1055.16 477.778 1055.16 479.025V497.506C1055.16 498.222 1055.54 498.883 1056.16 499.24L1064.88 504.263C1066.22 505.031 1067.88 504.068 1067.88 502.53V500.5C1067.88 499.779 1067.49 499.114 1066.87 498.759L1061.23 495.571L1061.23 495.57L1061.23 495.568C1061.21 495.555 1061.19 495.537 1061.17 495.521C1061.15 495.507 1061.13 495.495 1061.11 495.48C1061.11 495.479 1061.11 495.479 1061.11 495.478C1061.11 495.477 1061.11 495.476 1061.11 495.476C1061.09 495.458 1061.08 495.436 1061.06 495.416C1061.05 495.397 1061.03 495.38 1061.02 495.361C1061.02 495.36 1061.02 495.359 1061.02 495.359C1061.02 495.358 1061.02 495.357 1061.02 495.357C1061.01 495.335 1061 495.31 1060.99 495.285C1060.98 495.264 1060.97 495.243 1060.96 495.22C1060.95 495.193 1060.95 495.163 1060.95 495.135C1060.95 495.113 1060.94 495.092 1060.94 495.07V480.709C1060.94 479.994 1060.56 479.333 1059.94 478.976L1057.59 477.62ZM1061.52 471.893C1061.52 471.893 1061.52 471.893 1061.52 471.893L1057.57 474.167C1056.76 474.635 1056.76 475.809 1057.57 476.278L1060.52 477.977C1061.14 478.332 1061.9 478.332 1062.52 477.977L1065.47 476.277C1066.28 475.809 1066.28 474.635 1065.47 474.166L1061.52 471.893C1061.52 471.893 1061.52 471.893 1061.52 471.893ZM1064.53 492.669L1066.88 491.315C1067.5 490.958 1067.88 490.297 1067.88 489.581V479.025C1067.88 477.779 1066.53 476.999 1065.45 477.621L1063.1 478.976C1062.48 479.333 1062.1 479.994 1062.1 480.709V491.264C1062.1 492.511 1063.45 493.291 1064.53 492.669ZM1083.34 476.396C1082.73 476.04 1081.96 476.04 1081.35 476.396L1079.57 477.417C1078.24 478.187 1078.24 480.115 1079.57 480.884L1081.35 481.905C1081.96 482.261 1082.73 482.261 1083.34 481.905L1085.12 480.884C1086.45 480.114 1086.45 478.186 1085.12 477.417L1083.34 476.396ZM1081.77 484.638C1081.77 483.923 1081.38 483.262 1080.76 482.905L1078.41 481.549C1077.33 480.928 1075.98 481.707 1075.98 482.954V485.585C1075.98 486.3 1076.36 486.961 1076.98 487.318L1079.34 488.673C1080.42 489.295 1081.77 488.515 1081.77 487.268V484.638ZM1067.47 497.773C1068.08 498.12 1068.84 498.119 1069.45 497.769L1076.94 493.49L1078.15 492.8C1079.49 492.034 1079.5 490.101 1078.16 489.33L1076.4 488.318C1075.78 487.963 1075.02 487.963 1074.41 488.318L1068.75 491.574L1065.72 493.317C1064.38 494.09 1064.39 496.028 1065.74 496.791L1067.47 497.773Z" fill="#FF2D20"/>
<rect x="1114" y="350" width="60" height="60" fill="white" fill-opacity="0.8"/>
<rect x="1114.5" y="350.5" width="59" height="59" stroke="#034FAF" stroke-opacity="0.6"/>
<path d="M1127.76 390.409L1131.6 394.904L1131.95 394.494V365.743L1131.6 365.308L1127.76 369.802V390.409Z" fill="#1A476F"/>
<path d="M1131.6 394.904L1138.93 398.568L1139.23 398.077L1139.24 362.031L1138.94 361.647L1131.6 365.3V394.904Z" fill="#1F5B98"/>
<path d="M1160.53 369.802L1156.69 365.308L1156.26 365.444L1156.35 394.537L1156.69 394.904L1160.53 390.409V369.802Z" fill="#2D72B8"/>
<path d="M1149.36 398.568L1156.69 394.904V365.3L1149.36 361.647L1149.01 362.116L1149.01 398.035L1149.36 398.568Z" fill="#5294CF"/>
<path d="M1138.94 361.647H1149.36V398.568H1138.94V361.647Z" fill="#2D72B8"/>
<rect x="266" y="350" width="60" height="60" fill="white" fill-opacity="0.8"/>
<rect x="266.5" y="350.5" width="59" height="59" stroke="#034FAF" stroke-opacity="0.6"/>
<path d="M296.059 361.748L297.044 363.598C297.265 363.94 297.505 364.242 297.788 364.523C298.617 365.342 299.389 366.215 300.1 367.138C301.769 369.33 302.895 371.764 303.7 374.397C304.182 376.005 304.444 377.655 304.463 379.323C304.544 384.31 302.834 388.593 299.387 392.152C298.826 392.717 298.221 393.234 297.576 393.7C297.234 393.7 297.073 393.439 296.932 393.197C296.676 392.75 296.505 392.259 296.429 391.75C296.308 391.146 296.228 390.543 296.267 389.92V389.638C296.24 389.578 295.939 361.889 296.059 361.748Z" fill="#599636"/>
<path d="M296.059 361.687C296.018 361.606 295.978 361.667 295.937 361.707C295.957 362.11 295.816 362.47 295.596 362.814C295.354 363.156 295.033 363.417 294.711 363.699C292.923 365.247 291.515 367.117 290.388 369.209C288.888 372.024 288.115 375.041 287.896 378.217C287.796 379.363 288.258 383.405 288.62 384.572C289.605 387.668 291.375 390.263 293.667 392.515C294.23 393.057 294.832 393.56 295.455 394.044C295.636 394.044 295.656 393.882 295.697 393.762C295.777 393.505 295.837 393.243 295.879 392.978L296.282 389.962L296.059 361.687Z" fill="#6CAC48"/>
<path d="M297.044 394.926C297.084 394.465 297.306 394.082 297.547 393.7C297.305 393.599 297.125 393.4 296.984 393.177C296.863 392.966 296.762 392.744 296.684 392.514C296.403 391.669 296.343 390.783 296.262 389.92V389.398C296.162 389.478 296.141 390.161 296.141 390.263C296.082 391.175 295.961 392.082 295.778 392.978C295.718 393.34 295.678 393.701 295.455 394.023C295.455 394.063 295.455 394.104 295.475 394.164C295.837 395.23 295.937 396.315 295.998 397.422V397.825C295.998 398.308 295.978 398.206 296.378 398.368C296.54 398.428 296.72 398.448 296.881 398.568C297.003 398.568 297.022 398.468 297.022 398.387L296.962 397.724V395.873C296.943 395.55 297.003 395.23 297.043 394.927L297.044 394.926Z" fill="#C2BFBF"/>
<rect x="690" y="222" width="60" height="60" fill="white" fill-opacity="0.8"/>
<rect x="690.5" y="222.5" width="59" height="59" stroke="#034FAF" stroke-opacity="0.6"/>
<path d="M720.258 270.568L706.963 266.878L704 233.647H736.555L733.589 266.87L720.258 270.565V270.568Z" fill="#353495"/>
<path d="M731.049 264.755L733.584 236.365H720.277V267.743L731.049 264.755Z" fill="#3D449C"/>
<path d="M710.792 248.69L711.157 252.766H720.278V248.69H710.792ZM710.058 240.442L710.427 244.518H720.278V240.442H710.058ZM720.278 259.274L720.26 259.279L715.722 258.054L715.433 254.803H711.342L711.913 261.202L720.26 263.518L720.28 263.513V259.274H720.278Z" fill="#EEEDEA"/>
<path d="M729.736 248.69L730.472 240.442H720.263V244.518H726.004L725.632 248.692H720.26V252.769H725.278L724.803 258.054L720.258 259.281V263.521L728.613 261.204L728.673 260.516L729.631 249.786L729.731 248.692L729.736 248.69Z" fill="white"/>
<defs>
<linearGradient id="paint0_linear_511_340" x1="1440" y1="323.5" x2="0" y2="323.5" gradientUnits="userSpaceOnUse">
<stop stop-color="white"/>
<stop offset="0.5" stop-color="#D0EEF9"/>
<stop offset="1" stop-color="white"/>
</linearGradient>
<linearGradient id="paint1_linear_511_340" x1="511.048" y1="447.504" x2="546.908" y2="468.347" gradientUnits="userSpaceOnUse">
<stop stop-color="#2298BD"/>
<stop offset="1" stop-color="#0ED7B5"/>
</linearGradient>
</defs>
</svg>
