<svg width="90" height="90" viewBox="0 0 90 90" fill="none" xmlns="http://www.w3.org/2000/svg">
<rect x="33.6842" y="0.343342" width="64.3684" height="64.3684" rx="3.75" transform="rotate(31.1961 33.6842 0.343342)" fill="#F3F8FF" fill-opacity="0.5" stroke="#C6D2FF" stroke-width="0.5"/>
<path d="M34.1666 61.7278L23.9386 50.8699L39.8074 18.4795L69.9141 36.71L48.5654 65.7754L34.1666 61.7278Z" fill="#F73311"/>
<path d="M48.5655 65.7755L69.9141 36.7101L54.8478 27.587L34.1669 61.728L48.5657 65.7756L48.5655 65.7755Z" fill="#FE4B16"/>
<path d="M44.1553 45.2743L46.4375 41.5053L41.4502 38.4854L43.443 34.4169L48.7747 37.6455L51.0569 33.8765L41.606 28.1537L41.0835 29.2193L35.7205 40.1671L44.1549 45.2743L44.1553 45.2743Z" fill="#EBEBEB"/>
<path d="M40.5102 51.2937L40.4908 51.2881L36.9798 47.613L38.5317 44.4445L34.748 42.1533L31.6927 48.391L38.1151 55.2095L38.1354 55.215L40.51 51.2935L40.5102 51.2937Z" fill="#EBEBEB"/>
<path d="M55.1857 46.8024L46.4246 41.4973L44.1424 45.2662L48.7834 48.0766L45.3858 52.6995L40.4954 51.2889L38.1211 55.21L47.1442 57.7471L47.5864 57.1449L54.4808 47.7588L55.1856 46.8027L55.1857 46.8024Z" fill="white"/>
<path d="M60.4855 39.5857L51.0439 33.8685L48.7617 37.6374L57.8659 43.1503L58.4542 42.3487L59.7832 40.5421L60.4859 39.5856L60.4855 39.5857Z" fill="white"/>
</svg>
