<svg width="89" height="89" viewBox="0 0 89 89" fill="none" xmlns="http://www.w3.org/2000/svg">
<rect x="0.340162" y="31.7233" width="64.3684" height="64.3684" rx="3.75" transform="rotate(-29.18 0.340162 31.7233)" fill="#F3F8FF" fill-opacity="0.5" stroke="#C6D2FF" stroke-width="0.5"/>
<path d="M53.9381 61.6474L39.4497 65.1719L19.1323 35.3655L49.8644 18.204L64.5793 51.1319" fill="#D8BA33"/>
<path d="M61.0683 50.4692L48.4899 22.3324L35.929 29.3467L52.4718 58.9708" fill="#FCDB41"/>
<path d="M49.4179 31.6625L47.7043 27.8193L38.7755 32.8054L39.8499 34.7296L40.9244 36.6537L43.1247 40.5938L44.2263 42.5666L45.2736 44.4421L50.0032 41.3827L52.4363 46.781L48.5997 50.3983L50.8332 54.3979L56.8971 48.3953L56.589 47.7165L51.8409 37.0807L51.3563 35.9971L50.3186 36.5766L46.3892 38.7708L44.3305 34.6524L49.4179 31.6625Z" fill="#EBEBEB"/>
<path d="M43.9458 51.9548L41.2974 52.5829L39.9394 50.5193L37.2141 51.4669L41.1259 57.2023L49.2995 55.2188L48.2673 53.3704L47.066 51.2192L37.2569 33.6534L33.9869 35.4794L43.9458 51.9548Z" fill="#EBEBEB"/>
</svg>
