<svg width="1440" height="31" viewBox="0 0 1440 31" fill="none" xmlns="http://www.w3.org/2000/svg">
<path d="M1233.67 15.872C1233.67 20.1876 1230.28 23.3675 1226.13 23.3675C1221.97 23.3675 1218.59 20.1876 1218.59 15.872C1218.59 11.5257 1221.97 8.37598 1226.13 8.37598C1230.28 8.37598 1233.67 11.5257 1233.67 15.872ZM1230.37 15.872C1230.37 13.1748 1228.41 11.3301 1226.13 11.3301C1223.85 11.3301 1221.89 13.1748 1221.89 15.872C1221.89 18.5418 1223.85 20.4139 1226.13 20.4139C1228.41 20.4139 1230.37 18.5385 1230.37 15.872Z" fill="#9F9F9F"/>
<path d="M1249.93 15.872C1249.93 20.1876 1246.55 23.3675 1242.39 23.3675C1238.24 23.3675 1234.85 20.1876 1234.85 15.872C1234.85 11.529 1238.24 8.37598 1242.39 8.37598C1246.55 8.37598 1249.93 11.5257 1249.93 15.872ZM1246.63 15.872C1246.63 13.1748 1244.67 11.3301 1242.39 11.3301C1240.11 11.3301 1238.15 13.1748 1238.15 15.872C1238.15 18.5418 1240.11 20.4139 1242.39 20.4139C1244.67 20.4139 1246.63 18.5385 1246.63 15.872Z" fill="#9F9F9F"/>
<path d="M1265.52 8.83236V22.2893C1265.52 27.825 1262.24 30.0861 1258.37 30.0861C1254.73 30.0861 1252.54 27.6562 1251.71 25.6691L1254.59 24.4758C1255.1 25.6959 1256.35 27.1358 1258.37 27.1358C1260.85 27.1358 1262.38 25.6116 1262.38 22.7423V21.6641H1262.27C1261.53 22.5736 1260.11 23.3675 1258.31 23.3675C1254.55 23.3675 1251.11 20.1027 1251.11 15.9021C1251.11 11.6709 1254.55 8.37927 1258.31 8.37927C1260.1 8.37927 1261.53 9.17369 1262.27 10.0558H1262.38V8.83564H1265.52V8.83236ZM1262.62 15.9021C1262.62 13.263 1260.85 11.3334 1258.6 11.3334C1256.33 11.3334 1254.42 13.263 1254.42 15.9021C1254.42 18.5144 1256.33 20.4172 1258.6 20.4172C1260.85 20.4172 1262.62 18.5144 1262.62 15.9021Z" fill="#9F9F9F"/>
<path d="M1270.68 0.94458V22.9116H1267.47V0.94458H1270.68Z" fill="#9F9F9F"/>
<path d="M1283.23 18.3424L1285.79 20.0452C1284.96 21.2653 1282.97 23.3675 1279.53 23.3675C1275.26 23.3675 1272.07 20.0758 1272.07 15.8715C1272.07 11.4139 1275.29 8.37598 1279.16 8.37598C1283.06 8.37598 1284.97 11.4715 1285.59 13.1447L1285.93 13.9961L1275.89 18.1462C1276.66 19.6501 1277.85 20.4172 1279.53 20.4172C1281.21 20.4172 1282.38 19.5926 1283.23 18.3424ZM1275.34 15.6452L1282.06 12.8642C1281.69 11.9278 1280.58 11.2753 1279.27 11.2753C1277.59 11.2753 1275.26 12.7524 1275.34 15.6452Z" fill="#9F9F9F"/>
<path d="M1206.4 13.9215V10.7417H1217.15C1217.25 11.2961 1217.31 11.9514 1217.31 12.6614C1217.31 15.0469 1216.65 17.9972 1214.55 20.0994C1212.5 22.2284 1209.88 23.3642 1206.41 23.3642C1199.98 23.3642 1194.57 18.1396 1194.57 11.7251C1194.57 5.31059 1199.98 0.0860596 1206.41 0.0860596C1209.96 0.0860596 1212.5 1.47821 1214.4 3.29332L1212.15 5.53742C1210.79 4.25978 1208.94 3.26592 1206.4 3.26592C1201.71 3.26592 1198.03 7.04132 1198.03 11.7251C1198.03 16.4089 1201.71 20.1838 1206.4 20.1838C1209.45 20.1838 1211.18 18.9642 1212.3 17.8553C1213.2 16.9568 1213.79 15.6726 1214.02 13.9183L1206.4 13.9215Z" fill="#9F9F9F"/>
<path d="M264.637 28.1525C263.004 28.4453 261.342 28.5332 259.622 28.7675L254.379 13.0646V29.4418C252.745 29.6175 251.255 29.8518 249.708 30.0861V0.0860596H254.064L260.024 17.1075V0.0860596H264.637V28.1525ZM273.663 11.0725C275.439 11.0725 278.162 10.9846 279.795 10.9846V15.6718C277.761 15.6718 275.382 15.6718 273.663 15.7596V22.7325C276.357 22.5568 279.05 22.3225 281.772 22.2346V26.7461L269.078 27.7711V0.0860596H281.772V4.77356H273.663V11.0725ZM298.822 4.7737H294.065V26.3361C292.517 26.3361 290.97 26.3361 289.48 26.3946V4.7737H284.724V0.0860596H298.822V4.7737ZM306.272 10.7502H312.547V15.4375H306.272V26.0725H301.772V0.0860596H314.582V4.77356H306.272V10.7502ZM322.032 21.9711C324.639 22.0289 327.275 22.2346 329.826 22.3811V27.0096C325.728 26.7461 321.63 26.4825 317.447 26.3946V0.0860596H322.032V21.9711ZM333.694 27.3325C335.155 27.4203 336.702 27.5082 338.192 27.6839V0.0860596H333.694V27.3325ZM358.279 0.0860596L352.462 14.3539L358.279 30.0861C356.56 29.8518 354.841 29.5296 353.122 29.2361L349.827 20.5646L346.474 28.5332C344.812 28.2403 343.207 28.1525 341.546 27.9182L347.448 14.1775L342.119 0.0860596H347.047L350.055 7.96692L353.265 0.0860596H358.279Z" fill="#9F9F9F"/>
<path d="M904.808 8.15757C904.692 7.67242 904.682 7.16808 904.778 6.67867C904.97 5.77833 905.581 4.78031 907.356 4.78031C908.995 4.79839 909.975 5.80361 909.975 7.32963V9.07243H916.996V7.10178C916.996 0.976291 911.476 0 907.494 0C902.485 0 898.404 1.65974 897.655 6.2448C897.426 7.50082 897.446 8.78914 897.713 10.0381C898.932 15.7983 908.94 17.4615 910.394 21.1067C910.617 21.7789 910.637 22.5019 910.452 23.1852C910.221 24.1295 909.584 25.088 907.7 25.088C905.943 25.088 904.891 24.0605 904.891 22.5242V19.8121H897.322V21.982C897.322 28.2774 902.269 30.172 907.559 30.172C912.646 30.172 916.827 28.4357 917.507 23.7244C917.753 22.1962 917.744 20.6386 917.478 19.1145C916.289 13.202 905.61 11.4515 904.808 8.15757ZM996.389 8.22662C996.289 7.75 996.282 7.25906 996.368 6.78C996.567 5.87956 997.174 4.89607 998.92 4.89607C1000.54 4.89607 1001.5 5.9085 1001.5 7.42721V9.13742H1008.43V7.18129C1008.43 1.11367 1003.01 0.15911 999.054 0.15911C994.096 0.15911 990.043 1.79357 989.291 6.36055C989.06 7.60327 989.082 8.87951 989.356 10.1142C990.586 15.8054 1000.5 17.4544 1001.92 21.0702C1002.13 21.7403 1002.15 22.4552 1001.98 23.1355C1001.76 24.0716 1001.13 25.0149 999.263 25.0149C997.51 25.0149 996.458 24.0067 996.458 22.4846V19.7725H988.991V21.92C988.991 28.1433 993.866 30.0238 999.115 30.0238C1004.15 30.0238 1008.3 28.3027 1008.97 23.6452C1009.2 22.1302 1009.19 20.5869 1008.92 19.078C1007.75 13.2416 997.188 11.484 996.389 8.22662ZM1060.33 23.569L1053.7 0.896786H1043.25V28.7647H1050.17L1049.76 5.36608L1056.89 28.7647H1066.91V0.896786H1059.95L1060.33 23.569ZM927.472 0.896786L922.254 29.0582H929.848L933.793 2.9904L937.63 29.0612H945.183L939.988 0.896786H927.472ZM970.007 0.896786L966.452 22.9111L962.902 0.896786H951.414L950.806 29.0582H957.843L958.035 2.98684L962.872 29.0582H970.014L974.863 2.9904L975.055 29.0612H982.114L981.48 0.900342L970.007 0.896786ZM1035.46 0.896786H1028.32V21.7281C1028.34 22.0917 1028.32 22.4552 1028.26 22.8136C1028.11 23.5142 1027.52 24.8596 1025.55 24.8596C1023.58 24.8596 1023.02 23.5142 1022.87 22.8136C1022.8 22.4562 1022.78 22.0917 1022.8 21.7281V0.896786H1015.67V21.0702C1015.67 21.587 1015.7 22.6501 1015.73 22.9293C1016.22 28.19 1020.37 29.8969 1025.54 29.8969C1030.72 29.8969 1034.87 28.19 1035.37 22.9293C1035.43 22.311 1035.45 21.6906 1035.43 21.0702L1035.46 0.896786ZM1084.34 13.2528V17.3569H1087.24V21.4317C1087.25 21.7952 1087.22 22.1587 1087.16 22.5171C1087.05 23.2796 1086.33 24.5702 1084.27 24.5702C1082.21 24.5702 1081.52 23.2796 1081.4 22.5171C1081.35 22.1577 1081.32 21.7952 1081.32 21.4317V8.56271C1081.32 8.11553 1081.36 7.66887 1081.45 7.23195C1081.59 6.54494 1082.2 5.19256 1084.25 5.19256C1086.42 5.19256 1086.94 6.62089 1087.07 7.23195C1087.12 7.59089 1087.15 7.95348 1087.15 8.31699V9.87864H1094.25V8.95668C1094.26 8.33526 1094.25 7.71385 1094.19 7.09457C1093.66 1.81164 1089.31 0.141037 1084.31 0.141037C1079.32 0.141037 1075.05 1.82606 1074.43 7.09457C1074.38 7.57545 1074.29 8.43985 1074.29 8.95668V20.795C1074.29 21.4164 1074.33 22.0368 1074.4 22.6542C1074.86 27.7889 1079.32 29.6116 1084.3 29.6116C1089.28 29.6116 1093.73 27.8032 1094.2 22.6542C1094.28 21.7099 1094.29 21.3129 1094.3 20.795V13.2528H1084.34Z" fill="#9F9F9F"/>
<path d="M776.523 29.3809H783.088V17.3392C783.088 14.5854 784.678 12.6502 787.041 12.6502C789.312 12.6502 790.493 14.2441 790.493 16.5431V29.3809H797.058V15.2914C797.058 10.5105 794.196 7.14169 789.562 7.14169C786.609 7.14169 784.542 8.4168 782.997 10.7384H782.861V7.77925H776.5L776.523 29.3809ZM763.62 7.1876C756.76 7.1876 752.171 12.127 752.171 18.6368C752.171 25.1016 756.76 30.0861 763.62 30.0861C770.48 30.0861 775.069 25.1016 775.069 18.6368C775.092 12.127 770.48 7.1876 763.62 7.1876ZM763.575 25.2151C760.462 25.2151 758.804 22.5973 758.804 18.6368C758.804 14.6313 760.44 12.0585 763.575 12.0585C766.687 12.0585 768.413 14.6313 768.413 18.6368C768.436 22.5973 766.709 25.2151 763.575 25.2151ZM733.453 29.3809H751.899V24.1912H741.449V24.0544L751.444 12.8329V7.75672H733.453V12.969H743.561V13.1058L733.453 24.4182V29.3809ZM725.025 29.3809H731.636V7.77925H725.025V29.3809ZM709.692 29.3809H716.279V19.4563C716.279 14.9492 718.982 12.9464 723.095 13.5155H723.231V7.82514C722.89 7.68829 722.504 7.66576 721.89 7.66576C719.324 7.66576 717.597 8.84907 716.12 11.3759H715.984V7.77925H709.692V29.3809ZM697.607 25.2377C694.699 25.2377 692.927 23.3484 692.586 20.4352H708.124C708.17 15.7921 706.943 12.0819 704.376 9.7595C702.559 8.0755 700.174 7.14169 697.129 7.14169C690.633 7.14169 686.135 12.0819 686.135 18.5459C686.135 25.0557 690.428 30.0185 697.561 30.0185C700.265 30.0185 702.4 29.29 704.172 28.0833C706.057 26.7856 707.42 24.8738 707.783 22.9845H701.468C700.855 24.3957 699.538 25.2377 697.607 25.2377ZM697.265 11.8541C699.583 11.8541 701.173 13.584 701.445 16.11H692.631C693.154 13.5606 694.54 11.8541 697.265 11.8541ZM673.005 29.3809H679.91L687.407 7.77925H680.797L676.594 21.6644H676.503L672.301 7.77925H665.509L673.005 29.3809ZM725.025 0.0860596H731.636V5.95838H725.025V0.0860596Z" fill="#9F9F9F"/>
<path d="M1446.64 0.0860596C1440.05 0.0860596 1434.16 3.49403 1434.16 9.78948C1434.16 17.0096 1444.61 17.5081 1444.61 21.135C1444.61 22.6621 1442.85 24.0293 1439.86 24.0293C1435.61 24.0293 1432.43 22.1191 1432.43 22.1191L1431.07 28.4727C1431.07 28.4727 1434.73 30.0861 1439.59 30.0861C1446.79 30.0861 1452.46 26.5112 1452.46 20.1077C1452.46 12.4786 1441.98 11.9944 1441.98 8.62819C1441.98 7.43202 1443.42 6.12094 1446.4 6.12094C1449.77 6.12094 1452.52 7.50998 1452.52 7.50998L1453.85 1.37456C1453.85 1.37456 1450.86 0.0860596 1446.64 0.0860596ZM1386.36 0.549072L1386.2 1.47579C1386.2 1.47579 1388.97 1.98189 1391.47 2.99135C1394.68 4.14922 1394.91 4.82355 1395.45 6.91702L1401.35 29.6087H1409.26L1421.44 0.549072H1413.55L1405.72 20.3067L1402.53 3.55968C1402.24 1.64266 1400.75 0.549072 1398.94 0.549072H1386.36ZM1424.62 0.549072L1418.43 29.6087H1425.95L1432.12 0.549072H1424.62ZM1466.58 0.549072C1464.77 0.549072 1463.81 1.51887 1463.1 3.21225L1452.08 29.6087H1459.97L1461.5 25.209H1471.11L1472.04 29.6087H1479L1472.92 0.549072H1466.58ZM1467.61 8.40044L1469.95 19.3048H1463.68L1467.61 8.40044Z" fill="#9F9F9F"/>
<path d="M477.273 17.1938H464.786V29.5183H458.544V0.653809H464.786V12.4911H477.273V0.653809H483.515V29.5183H477.273V17.1938Z" fill="#9F9F9F"/>
<path d="M498.596 30.0451C492.352 30.0451 487.244 27.5313 487.163 20.6396H493.408C493.487 23.7197 495.269 25.5853 498.676 25.5853C501.184 25.5853 504.115 24.2874 504.115 21.4502C504.115 19.1794 502.161 18.5312 498.913 17.5582L496.814 16.9905C492.272 15.694 487.731 13.9103 487.731 8.72044C487.731 2.31592 493.725 0.126953 499.164 0.126953C504.762 0.126953 509.62 2.07301 509.7 8.47752H503.455C503.217 5.88324 501.673 4.34251 498.755 4.34251C496.405 4.34251 494.134 5.55846 494.134 8.15274C494.134 10.2612 496.088 10.9094 500.141 12.2072L502.57 12.9373C507.508 14.478 510.677 16.1798 510.677 21.0449C510.597 27.5313 504.274 30.0451 498.596 30.0451Z" fill="#9F9F9F"/>
<path d="M514.163 0.709508H524.223C526.085 0.627653 528.026 0.709502 529.887 1.03296C533.373 1.84359 536.053 4.11441 536.053 8.0065C536.053 11.7362 533.703 13.6004 530.297 14.4929C534.191 15.2217 537.109 17.1677 537.109 21.4651C537.109 28.032 530.627 29.4922 525.596 29.4922H514.242L514.163 0.709508ZM524.223 12.7092C526.97 12.7092 529.808 12.1415 529.808 8.81712C529.808 5.81753 527.22 5.00558 524.619 5.00558H520.249V12.7092H524.223ZM524.791 25.1948C527.709 25.1948 530.547 24.5465 530.547 20.9792C530.547 17.4106 528.105 16.7624 525.108 16.7624H520.157V25.1948H524.791Z" fill="#9F9F9F"/>
<path d="M553.321 30.086C544 30.086 539.868 24.1673 539.868 15.3296C539.868 6.4919 544.489 0.0860596 553.651 0.0860596C559.408 0.0860596 565.006 2.68035 565.164 9.16672H558.682C558.352 6.24897 556.411 4.78877 553.651 4.78877C547.974 4.78877 546.271 10.8698 546.271 15.492C546.271 20.1129 547.974 25.4638 553.401 25.4638C556.239 25.4638 558.352 23.9231 558.761 21.0054H565.243C564.596 27.6528 559.329 30.086 553.321 30.086Z" fill="#9F9F9F"/>
<path d="M-37.23 30.0281V29.6781L-36.425 29.3631C-36.0283 29.1997 -35.76 28.9897 -35.62 28.7331C-35.4567 28.4531 -35.375 28.0797 -35.375 27.6131V9.34308C-35.375 8.87641 -35.445 8.51474 -35.585 8.25807C-35.7017 7.97808 -35.9817 7.75641 -36.425 7.59308L-37.23 7.27807V6.92808H-20.465L-20.255 12.3181H-20.605L-22.11 9.02808C-22.32 8.60808 -22.5417 8.26974 -22.775 8.01308C-23.0083 7.75641 -23.3583 7.62807 -23.825 7.62807H-30.125V17.7431H-26.38C-25.9133 17.7431 -25.5633 17.6264 -25.33 17.3931C-25.0733 17.1364 -24.8517 16.7981 -24.665 16.3781L-23.965 14.9781H-23.615V21.2781H-23.965L-24.665 19.8081C-24.875 19.3881 -25.0967 19.0614 -25.33 18.8281C-25.5633 18.5714 -25.9133 18.4431 -26.38 18.4431H-30.125V29.3281H-23.055C-22.5883 29.3281 -22.2267 29.2114 -21.97 28.9781C-21.7133 28.7214 -21.5033 28.3714 -21.34 27.9281L-19.905 24.6381H-19.555L-19.765 30.0281H-37.23ZM-18.1309 30.0281V29.6781L-17.2209 29.4681C-16.6843 29.3514 -16.2526 29.1764 -15.9259 28.9431C-15.5759 28.6864 -15.2493 28.3364 -14.9459 27.8931L-11.1659 22.4681L-15.9259 14.9081C-16.1593 14.5581 -16.3693 14.2897 -16.5559 14.1031C-16.7426 13.9164 -17.0343 13.7764 -17.4309 13.6831L-17.9209 13.5431V13.1931H-9.03094V13.5431L-9.62594 13.6831C-10.4426 13.9397 -10.6059 14.4531 -10.1159 15.2231L-7.24594 19.6681L-4.13094 15.3631C-3.87427 14.9664 -3.7576 14.6397 -3.78094 14.3831C-3.78094 14.1031 -4.0026 13.9047 -4.44594 13.7881L-5.32094 13.5431V13.1931H-0.210936V13.5431L-1.05094 13.7531C-1.56427 13.8931 -1.96094 14.0797 -2.24094 14.3131C-2.52094 14.5231 -2.82427 14.8614 -3.15094 15.3281L-6.82594 20.2981L-2.03094 27.7531C-1.4476 28.6631 -0.665937 29.2464 0.314063 29.5031L0.874064 29.6781V30.0281H-8.78594V29.6781L-8.19094 29.5381C-7.79427 29.4447 -7.54927 29.2581 -7.45594 28.9781C-7.33927 28.6747 -7.3976 28.3364 -7.63094 27.9631L-10.7109 23.1681L-14.0359 27.9981C-14.3159 28.3714 -14.4093 28.6981 -14.3159 28.9781C-14.1993 29.2347 -13.9543 29.4097 -13.5809 29.5031L-12.8809 29.6781V30.0281H-18.1309ZM1.83 30.0281V29.6781L2.74 29.4681C3.27667 29.3514 3.70833 29.1764 4.035 28.9431C4.385 28.6864 4.71167 28.3364 5.015 27.8931L8.795 22.4681L4.035 14.9081C3.80167 14.5581 3.59167 14.2897 3.405 14.1031C3.21833 13.9164 2.92667 13.7764 2.53 13.6831L2.04 13.5431V13.1931H10.93V13.5431L10.335 13.6831C9.51833 13.9397 9.355 14.4531 9.845 15.2231L12.715 19.6681L15.83 15.3631C16.0867 14.9664 16.2033 14.6397 16.18 14.3831C16.18 14.1031 15.9583 13.9047 15.515 13.7881L14.64 13.5431V13.1931H19.75V13.5431L18.91 13.7531C18.3967 13.8931 18 14.0797 17.72 14.3131C17.44 14.5231 17.1367 14.8614 16.81 15.3281L13.135 20.2981L17.93 27.7531C18.5133 28.6631 19.295 29.2464 20.275 29.5031L20.835 29.6781V30.0281H11.175V29.6781L11.77 29.5381C12.1667 29.4447 12.4117 29.2581 12.505 28.9781C12.6217 28.6747 12.5633 28.3364 12.33 27.9631L9.25 23.1681L5.925 27.9981C5.645 28.3714 5.55167 28.6981 5.645 28.9781C5.76167 29.2347 6.00667 29.4097 6.38 29.5031L7.08 29.6781V30.0281H1.83ZM30.139 30.5531C28.3657 30.5531 26.8257 30.1914 25.519 29.4681C24.2123 28.7214 23.1973 27.6714 22.474 26.3181C21.774 24.9647 21.424 23.3781 21.424 21.5581C21.424 19.7381 21.7973 18.1631 22.544 16.8331C23.314 15.5031 24.3523 14.4764 25.659 13.7531C26.989 13.0297 28.4823 12.6681 30.139 12.6681C31.7957 12.6681 33.2773 13.0297 34.584 13.7531C35.8907 14.4531 36.9173 15.4681 37.664 16.7981C38.434 18.1281 38.819 19.7147 38.819 21.5581C38.819 23.4014 38.4573 24.9997 37.734 26.3531C37.034 27.6831 36.0307 28.7214 34.724 29.4681C33.4407 30.1914 31.9123 30.5531 30.139 30.5531ZM30.139 29.8531C30.9557 29.8531 31.609 29.6197 32.099 29.1531C32.589 28.6864 32.939 27.8581 33.149 26.6681C33.3823 25.4781 33.499 23.7981 33.499 21.6281C33.499 19.4347 33.3823 17.7431 33.149 16.5531C32.939 15.3631 32.589 14.5347 32.099 14.0681C31.609 13.6014 30.9557 13.3681 30.139 13.3681C29.3223 13.3681 28.6573 13.6014 28.144 14.0681C27.654 14.5347 27.2923 15.3631 27.059 16.5531C26.849 17.7431 26.744 19.4347 26.744 21.6281C26.744 23.7981 26.849 25.4781 27.059 26.6681C27.2923 27.8581 27.654 28.6864 28.144 29.1531C28.6573 29.6197 29.3223 29.8531 30.139 29.8531ZM40.3563 30.0281V29.6781L40.8463 29.5381C41.6629 29.3047 42.0713 28.7331 42.0713 27.8231V16.8681C42.0713 16.3547 41.9896 15.9814 41.8263 15.7481C41.6629 15.4914 41.3479 15.3164 40.8813 15.2231L40.3563 15.0831V14.7331L46.3413 12.7031L46.6913 13.0531L46.9713 15.1531C47.7879 14.4297 48.7096 13.8347 49.7363 13.3681C50.7629 12.9014 51.7779 12.6681 52.7813 12.6681C54.3213 12.6681 55.4996 13.0881 56.3163 13.9281C57.1563 14.7681 57.5763 16.0514 57.5763 17.7781V27.8581C57.5763 28.7681 58.0196 29.3397 58.9063 29.5731L59.2213 29.6781V30.0281H50.9613V29.6781L51.4163 29.5381C52.2329 29.2814 52.6413 28.7097 52.6413 27.8231V16.6581C52.6413 15.1647 51.8946 14.4181 50.4013 14.4181C49.3746 14.4181 48.2546 14.9314 47.0413 15.9581V27.8581C47.0413 28.7681 47.4496 29.3397 48.2663 29.5731L48.5813 29.6781V30.0281H40.3563ZM60.5906 30.0281V29.6781L61.2906 29.4331C62.084 29.1764 62.4806 28.5114 62.4806 27.4381V9.51808C62.4806 9.05141 62.4223 8.67808 62.3056 8.39808C62.2123 8.11807 61.944 7.88474 61.5006 7.69808L60.5906 7.27807V6.92808H67.3456L73.8206 23.8681L79.9106 6.92808H86.8056V7.27807L86.2456 7.48807C85.8023 7.65141 85.499 7.88474 85.3356 8.18808C85.1723 8.46807 85.0906 8.84141 85.0906 9.30808V27.6131C85.0906 28.0797 85.149 28.4414 85.2656 28.6981C85.3823 28.9547 85.6623 29.1764 86.1056 29.3631L86.8056 29.6781V30.0281H78.0906V29.6781L78.8256 29.3631C79.269 29.1764 79.549 28.9547 79.6656 28.6981C79.7823 28.4414 79.8406 28.0797 79.8406 27.6131V19.7381L79.9106 9.72807L72.5956 30.0281H70.8456L63.2156 9.97308L63.3206 18.6881V27.5081C63.3206 28.0214 63.3906 28.4414 63.5306 28.7681C63.694 29.0714 63.9973 29.2931 64.4406 29.4331L65.2106 29.6781V30.0281H60.5906ZM96.2083 30.5531C94.435 30.5531 92.895 30.1914 91.5883 29.4681C90.2817 28.7214 89.2667 27.6714 88.5433 26.3181C87.8433 24.9647 87.4933 23.3781 87.4933 21.5581C87.4933 19.7381 87.8667 18.1631 88.6133 16.8331C89.3833 15.5031 90.4217 14.4764 91.7283 13.7531C93.0583 13.0297 94.5517 12.6681 96.2083 12.6681C97.865 12.6681 99.3467 13.0297 100.653 13.7531C101.96 14.4531 102.987 15.4681 103.733 16.7981C104.503 18.1281 104.888 19.7147 104.888 21.5581C104.888 23.4014 104.527 24.9997 103.803 26.3531C103.103 27.6831 102.1 28.7214 100.793 29.4681C99.51 30.1914 97.9817 30.5531 96.2083 30.5531ZM96.2083 29.8531C97.025 29.8531 97.6783 29.6197 98.1683 29.1531C98.6583 28.6864 99.0083 27.8581 99.2183 26.6681C99.4517 25.4781 99.5683 23.7981 99.5683 21.6281C99.5683 19.4347 99.4517 17.7431 99.2183 16.5531C99.0083 15.3631 98.6583 14.5347 98.1683 14.0681C97.6783 13.6014 97.025 13.3681 96.2083 13.3681C95.3917 13.3681 94.7267 13.6014 94.2133 14.0681C93.7233 14.5347 93.3617 15.3631 93.1283 16.5531C92.9183 17.7431 92.8133 19.4347 92.8133 21.6281C92.8133 23.7981 92.9183 25.4781 93.1283 26.6681C93.3617 27.8581 93.7233 28.6864 94.2133 29.1531C94.7267 29.6197 95.3917 29.8531 96.2083 29.8531ZM112.274 30.4831L106.359 30.0281V29.6781L106.709 29.6081C107.619 29.3981 108.074 28.8147 108.074 27.8581V9.13308C108.074 8.64308 107.992 8.26974 107.829 8.01308C107.689 7.75641 107.386 7.58141 106.919 7.48807L106.429 7.34808V6.99807L112.659 5.49307L113.079 5.80808L112.939 10.7431V14.2781C113.709 13.7414 114.549 13.3447 115.459 13.0881C116.369 12.8081 117.291 12.6681 118.224 12.6681C119.554 12.6681 120.732 12.9831 121.759 13.6131C122.786 14.2197 123.591 15.1764 124.174 16.4831C124.781 17.7664 125.084 19.4231 125.084 21.4531C125.084 23.4831 124.746 25.1747 124.069 26.5281C123.416 27.8581 122.529 28.8614 121.409 29.5381C120.312 30.2147 119.099 30.5531 117.769 30.5531C116.906 30.5531 116.031 30.4364 115.144 30.2031C114.281 29.9697 113.511 29.6431 112.834 29.2231L112.274 30.4831ZM116.019 29.3631C116.766 29.3631 117.419 29.1297 117.979 28.6631C118.539 28.1964 118.982 27.4031 119.309 26.2831C119.636 25.1397 119.799 23.5764 119.799 21.5931C119.799 19.6097 119.647 18.0814 119.344 17.0081C119.041 15.9347 118.609 15.1881 118.049 14.7681C117.512 14.3481 116.859 14.1381 116.089 14.1381C114.992 14.1381 113.977 14.4414 113.044 15.0481V28.4881C113.487 28.7681 113.942 28.9897 114.409 29.1531C114.876 29.2931 115.412 29.3631 116.019 29.3631ZM130.826 10.8481C130.032 10.8481 129.356 10.6031 128.796 10.1131C128.259 9.59974 127.991 8.95808 127.991 8.18808C127.991 7.39474 128.259 6.75307 128.796 6.26308C129.356 5.77307 130.032 5.52807 130.826 5.52807C131.619 5.52807 132.284 5.77307 132.821 6.26308C133.357 6.75307 133.626 7.39474 133.626 8.18808C133.626 8.95808 133.357 9.59974 132.821 10.1131C132.284 10.6031 131.619 10.8481 130.826 10.8481ZM126.696 30.0281V29.6781L127.186 29.5381C127.652 29.3981 127.967 29.1881 128.131 28.9081C128.317 28.6281 128.411 28.2547 128.411 27.7881V16.8331C128.411 16.3431 128.317 15.9814 128.131 15.7481C127.967 15.4914 127.652 15.3164 127.186 15.2231L126.696 15.1181V14.7681L133.101 12.7031L133.451 13.0531L133.346 18.0231V27.8231C133.346 28.2897 133.427 28.6631 133.591 28.9431C133.777 29.2231 134.092 29.4331 134.536 29.5731L134.886 29.6781V30.0281H126.696ZM136.54 30.0281V29.6781L136.96 29.5381C137.8 29.2581 138.22 28.6747 138.22 27.7881V9.06307C138.22 8.59641 138.127 8.24641 137.94 8.01308C137.754 7.75641 137.427 7.56974 136.96 7.45307L136.505 7.34808V6.99807L142.91 5.49307L143.33 5.80808L143.19 10.7081V22.6781C143.19 23.5414 143.19 24.4047 143.19 25.2681C143.214 26.1081 143.225 26.9481 143.225 27.7881C143.225 28.2547 143.319 28.6397 143.505 28.9431C143.692 29.2231 144.007 29.4331 144.45 29.5731L144.905 29.6781V30.0281H136.54Z" fill="#9F9F9F"/>
</svg>
