<svg width="1440" height="619" viewBox="0 0 1440 619" fill="none" xmlns="http://www.w3.org/2000/svg">
<circle opacity="0.5" cx="76" cy="76" r="76" fill="url(#paint0_radial_557_2)"/>
<circle opacity="0.5" cx="1143" cy="441" r="178" fill="url(#paint1_radial_557_2)"/>
<circle opacity="0.5" cx="1261" cy="261" r="179" fill="url(#paint2_radial_557_2)"/>
<circle opacity="0.5" cx="200" cy="440" r="179" fill="url(#paint3_radial_557_2)"/>
<circle opacity="0.5" cx="150" cy="263" r="150" fill="url(#paint4_radial_557_2)"/>
<rect x="0.5" y="0.5" width="67.8995" height="67.8995" stroke="white"/>
<rect x="69.3995" y="0.5" width="67.8995" height="67.8995" stroke="white"/>
<rect x="138.299" y="0.5" width="67.8995" height="67.8995" stroke="white"/>
<rect x="207.199" y="0.5" width="67.8995" height="67.8995" stroke="white"/>
<rect x="276.098" y="0.5" width="67.8995" height="67.8995" stroke="white"/>
<rect x="344.998" y="0.5" width="67.8995" height="67.8995" stroke="white"/>
<rect x="413.897" y="0.5" width="67.8995" height="67.8995" stroke="white"/>
<rect x="482.797" y="0.5" width="67.8995" height="67.8995" stroke="white"/>
<rect x="551.696" y="0.5" width="67.8995" height="67.8995" stroke="white"/>
<rect x="620.596" y="0.5" width="67.8995" height="67.8995" stroke="white"/>
<rect x="689.495" y="0.5" width="67.8995" height="67.8995" stroke="white"/>
<rect x="758.395" y="0.5" width="67.8995" height="67.8995" stroke="white"/>
<rect x="827.294" y="0.5" width="67.8995" height="67.8995" stroke="white"/>
<rect x="896.194" y="0.5" width="67.8995" height="67.8995" stroke="white"/>
<rect x="965.093" y="0.5" width="67.8995" height="67.8995" stroke="white"/>
<rect x="1033.99" y="0.5" width="67.8995" height="67.8995" stroke="white"/>
<rect x="1102.89" y="0.5" width="67.8995" height="67.8995" stroke="white"/>
<rect x="1171.79" y="0.5" width="67.8995" height="67.8995" stroke="white"/>
<rect x="1240.69" y="0.5" width="67.8995" height="67.8995" stroke="white"/>
<rect x="1309.59" y="0.5" width="67.8995" height="67.8995" stroke="white"/>
<rect x="1378.49" y="0.5" width="61.0096" height="67.8995" stroke="white"/>
<rect x="0.5" y="69.3995" width="67.8995" height="67.8995" stroke="white"/>
<rect x="69.3995" y="69.3995" width="67.8995" height="67.8995" stroke="white"/>
<rect x="138.299" y="69.3995" width="67.8995" height="67.8995" stroke="white"/>
<rect x="207.199" y="69.3995" width="67.8995" height="67.8995" stroke="white"/>
<rect x="276.098" y="69.3995" width="67.8995" height="67.8995" stroke="white"/>
<g opacity="0.12">
<rect x="344.998" y="69.3995" width="67.8995" height="67.8995" fill="white"/>
<rect x="344.998" y="69.3995" width="67.8995" height="67.8995" stroke="white"/>
<rect x="344.998" y="69.3995" width="67.8995" height="67.8995" stroke="black" stroke-opacity="0.2"/>
</g>
<rect x="413.897" y="69.3995" width="67.8995" height="67.8995" stroke="white"/>
<rect x="482.797" y="69.3995" width="67.8995" height="67.8995" stroke="white"/>
<rect x="551.696" y="69.3995" width="67.8995" height="67.8995" stroke="white"/>
<rect x="620.596" y="69.3995" width="67.8995" height="67.8995" stroke="white"/>
<rect x="689.495" y="69.3995" width="67.8995" height="67.8995" stroke="white"/>
<rect opacity="0.12" x="758.395" y="69.3995" width="67.8995" height="67.8995" fill="white" stroke="white"/>
<rect x="827.294" y="69.3995" width="67.8995" height="67.8995" stroke="white"/>
<rect x="896.194" y="69.3995" width="67.8995" height="67.8995" stroke="white"/>
<rect x="965.093" y="69.3995" width="67.8995" height="67.8995" stroke="white"/>
<rect x="1033.99" y="69.3995" width="67.8995" height="67.8995" stroke="white"/>
<rect x="1102.89" y="69.3995" width="67.8995" height="67.8995" stroke="white"/>
<rect x="1171.79" y="69.3995" width="67.8995" height="67.8995" stroke="white"/>
<rect x="1240.69" y="69.3995" width="67.8995" height="67.8995" stroke="white"/>
<rect x="1309.59" y="69.3995" width="67.8995" height="67.8995" stroke="white"/>
<rect x="1378.49" y="69.3995" width="61.0096" height="67.8995" stroke="white"/>
<rect x="0.5" y="138.299" width="67.8995" height="67.8995" stroke="white"/>
<rect x="69.3995" y="138.299" width="67.8995" height="67.8995" stroke="white"/>
<rect x="138.299" y="138.299" width="67.8995" height="67.8995" stroke="white"/>
<rect x="207.199" y="138.299" width="67.8995" height="67.8995" stroke="white"/>
<rect x="276.098" y="138.299" width="67.8995" height="67.8995" stroke="white"/>
<rect x="344.998" y="138.299" width="67.8995" height="67.8995" stroke="white"/>
<rect x="413.897" y="138.299" width="67.8995" height="67.8995" stroke="white"/>
<rect x="482.797" y="138.299" width="67.8995" height="67.8995" stroke="white"/>
<rect x="551.696" y="138.299" width="67.8995" height="67.8995" stroke="white"/>
<rect x="620.596" y="138.299" width="67.8995" height="67.8995" stroke="white"/>
<rect x="689.495" y="138.299" width="67.8995" height="67.8995" stroke="white"/>
<rect x="758.395" y="138.299" width="67.8995" height="67.8995" stroke="white"/>
<rect x="827.294" y="138.299" width="67.8995" height="67.8995" stroke="white"/>
<rect x="896.194" y="138.299" width="67.8995" height="67.8995" stroke="white"/>
<rect x="965.093" y="138.299" width="67.8995" height="67.8995" stroke="white"/>
<rect x="1033.99" y="138.299" width="67.8995" height="67.8995" stroke="white"/>
<rect x="1102.89" y="138.299" width="67.8995" height="67.8995" stroke="white"/>
<rect x="1171.79" y="138.299" width="67.8995" height="67.8995" stroke="white"/>
<rect x="1240.69" y="138.299" width="67.8995" height="67.8995" stroke="white"/>
<rect x="1309.59" y="138.299" width="67.8995" height="67.8995" stroke="white"/>
<rect x="1378.49" y="138.299" width="61.0096" height="67.8995" stroke="white"/>
<rect x="0.5" y="207.199" width="67.8995" height="67.8995" stroke="white"/>
<rect x="69.3995" y="207.199" width="67.8995" height="67.8995" stroke="white"/>
<rect x="138.299" y="207.199" width="67.8995" height="67.8995" stroke="white"/>
<rect x="207.199" y="207.199" width="67.8995" height="67.8995" stroke="white"/>
<rect x="276.098" y="207.199" width="67.8995" height="67.8995" stroke="white"/>
<rect x="344.998" y="207.199" width="67.8995" height="67.8995" stroke="white"/>
<rect x="413.897" y="207.199" width="67.8995" height="67.8995" stroke="white"/>
<rect x="482.797" y="207.199" width="67.8995" height="67.8995" stroke="white"/>
<rect x="551.696" y="207.199" width="67.8995" height="67.8995" stroke="white"/>
<rect x="620.596" y="207.199" width="67.8995" height="67.8995" stroke="white"/>
<rect x="689.495" y="207.199" width="67.8995" height="67.8995" stroke="white"/>
<rect x="758.395" y="207.199" width="67.8995" height="67.8995" stroke="white"/>
<rect x="827.294" y="207.199" width="67.8995" height="67.8995" stroke="white"/>
<rect x="896.194" y="207.199" width="67.8995" height="67.8995" stroke="white"/>
<rect x="965.093" y="207.199" width="67.8995" height="67.8995" stroke="white"/>
<rect x="1033.99" y="207.199" width="67.8995" height="67.8995" stroke="white"/>
<rect x="1102.89" y="207.199" width="67.8995" height="67.8995" stroke="white"/>
<rect x="1171.79" y="207.199" width="67.8995" height="67.8995" stroke="white"/>
<rect x="1240.69" y="207.199" width="67.8995" height="67.8995" stroke="white"/>
<rect x="1309.59" y="207.199" width="67.8995" height="67.8995" stroke="white"/>
<rect x="1378.49" y="207.199" width="61.0096" height="67.8995" stroke="white"/>
<rect x="0.5" y="276.098" width="67.8995" height="67.8995" stroke="white"/>
<rect x="138.299" y="276.098" width="67.8995" height="67.8995" stroke="white"/>
<rect x="207.199" y="276.098" width="67.8995" height="67.8995" stroke="white"/>
<rect x="276.098" y="276.098" width="67.8995" height="67.8995" stroke="white"/>
<rect x="344.998" y="276.098" width="67.8995" height="67.8995" stroke="white"/>
<rect x="413.897" y="276.098" width="67.8995" height="67.8995" stroke="white"/>
<rect x="482.797" y="276.098" width="67.8995" height="67.8995" stroke="white"/>
<rect x="551.696" y="276.098" width="67.8995" height="67.8995" stroke="white"/>
<rect opacity="0.12" x="620.596" y="276.098" width="67.8995" height="67.8995" fill="white" stroke="white"/>
<rect x="689.495" y="276.098" width="67.8995" height="67.8995" stroke="white"/>
<rect x="758.395" y="276.098" width="67.8995" height="67.8995" stroke="white"/>
<rect x="827.294" y="276.098" width="67.8995" height="67.8995" stroke="white"/>
<rect x="896.194" y="276.098" width="67.8995" height="67.8995" stroke="white"/>
<rect x="965.093" y="276.098" width="67.8995" height="67.8995" stroke="white"/>
<rect x="1033.99" y="276.098" width="67.8995" height="67.8995" stroke="white"/>
<rect opacity="0.12" x="1102.89" y="276.098" width="67.8995" height="67.8995" stroke="white"/>
<rect x="1171.79" y="276.098" width="67.8995" height="67.8995" stroke="white"/>
<rect opacity="0.6" x="1240.69" y="276.098" width="67.8995" height="67.8995" fill="white" stroke="white"/>
<rect x="1309.59" y="276.098" width="67.8995" height="67.8995" stroke="white"/>
<rect x="1378.49" y="276.098" width="61.0096" height="67.8995" stroke="white"/>
<rect opacity="0.6" x="69.3995" y="276.098" width="67.8995" height="67.8995" fill="white" stroke="white"/>
<rect x="0.5" y="344.998" width="67.8995" height="67.8995" stroke="white"/>
<rect x="69.3995" y="344.998" width="67.8995" height="67.8995" stroke="white"/>
<rect x="138.299" y="344.998" width="67.8995" height="67.8995" stroke="white"/>
<rect x="207.199" y="344.998" width="67.8995" height="67.8995" stroke="white"/>
<rect x="276.098" y="344.998" width="67.8995" height="67.8995" stroke="white"/>
<rect x="344.998" y="344.998" width="67.8995" height="67.8995" stroke="white"/>
<rect x="413.897" y="344.998" width="67.8995" height="67.8995" stroke="white"/>
<rect x="482.797" y="344.998" width="67.8995" height="67.8995" stroke="white"/>
<rect x="551.696" y="344.998" width="67.8995" height="67.8995" stroke="white"/>
<rect x="620.596" y="344.998" width="67.8995" height="67.8995" stroke="white"/>
<rect x="689.495" y="344.998" width="67.8995" height="67.8995" stroke="white"/>
<rect x="758.395" y="344.998" width="67.8995" height="67.8995" stroke="white"/>
<rect x="827.294" y="344.998" width="67.8995" height="67.8995" stroke="white"/>
<rect x="896.194" y="344.998" width="67.8995" height="67.8995" stroke="white"/>
<rect x="965.093" y="344.998" width="67.8995" height="67.8995" stroke="white"/>
<rect x="1033.99" y="344.998" width="67.8995" height="67.8995" stroke="white"/>
<rect x="1102.89" y="344.998" width="67.8995" height="67.8995" stroke="white"/>
<rect x="1171.79" y="344.998" width="67.8995" height="67.8995" stroke="white"/>
<rect x="1240.69" y="344.998" width="67.8995" height="67.8995" stroke="white"/>
<rect x="1309.59" y="344.998" width="67.8995" height="67.8995" stroke="white"/>
<rect x="1378.49" y="344.998" width="61.0096" height="67.8995" stroke="white"/>
<rect x="0.5" y="413.897" width="67.8995" height="67.8995" stroke="white"/>
<rect x="69.3995" y="413.897" width="67.8995" height="67.8995" stroke="white"/>
<rect x="138.299" y="413.897" width="67.8995" height="67.8995" stroke="white"/>
<rect x="207.199" y="413.897" width="67.8995" height="67.8995" stroke="white"/>
<rect x="276.098" y="413.897" width="67.8995" height="67.8995" stroke="white"/>
<rect x="344.998" y="413.897" width="67.8995" height="67.8995" stroke="white"/>
<rect x="413.897" y="413.897" width="67.8995" height="67.8995" stroke="white"/>
<rect opacity="0.3" x="482.797" y="413.897" width="67.8995" height="67.8995" fill="white" stroke="white"/>
<rect x="551.696" y="413.897" width="67.8995" height="67.8995" stroke="white"/>
<rect x="620.596" y="413.897" width="67.8995" height="67.8995" stroke="white"/>
<rect x="689.495" y="413.897" width="67.8995" height="67.8995" stroke="white"/>
<rect x="758.395" y="413.897" width="67.8995" height="67.8995" stroke="white"/>
<rect x="827.294" y="413.897" width="67.8995" height="67.8995" stroke="white"/>
<rect x="896.194" y="413.897" width="67.8995" height="67.8995" stroke="white"/>
<rect x="965.093" y="413.897" width="67.8995" height="67.8995" stroke="white"/>
<rect x="1033.99" y="413.897" width="67.8995" height="67.8995" stroke="white"/>
<rect x="1102.89" y="413.897" width="67.8995" height="67.8995" stroke="white"/>
<rect opacity="0.5" x="1171.79" y="413.897" width="67.8995" height="67.8995" fill="white" stroke="white"/>
<rect x="1240.69" y="413.897" width="67.8995" height="67.8995" stroke="white"/>
<rect x="1309.59" y="413.897" width="67.8995" height="67.8995" stroke="white"/>
<rect x="1378.49" y="413.897" width="61.0096" height="67.8995" stroke="white"/>
<rect x="0.5" y="482.334" width="67.8995" height="67.8995" stroke="white"/>
<rect x="69.3995" y="482.334" width="67.8995" height="67.8995" stroke="white"/>
<rect x="138.299" y="482.334" width="67.8995" height="67.8995" stroke="white"/>
<rect opacity="0.5" x="207.199" y="482.334" width="67.8995" height="67.8995" fill="white" stroke="white"/>
<rect x="276.098" y="482.334" width="67.8995" height="67.8995" stroke="white"/>
<rect x="344.998" y="482.334" width="67.8995" height="67.8995" stroke="white"/>
<rect x="413.897" y="482.334" width="67.8995" height="67.8995" stroke="white"/>
<rect x="482.797" y="482.334" width="67.8995" height="67.8995" stroke="white"/>
<rect x="551.696" y="482.334" width="67.8995" height="67.8995" stroke="white"/>
<rect x="620.596" y="482.334" width="67.8995" height="67.8995" stroke="white"/>
<rect x="689.495" y="482.334" width="67.8995" height="67.8995" stroke="white"/>
<rect x="758.395" y="482.334" width="67.8995" height="67.8995" stroke="white"/>
<rect x="827.294" y="482.334" width="67.8995" height="67.8995" stroke="white"/>
<rect x="896.194" y="482.334" width="67.8995" height="67.8995" stroke="white"/>
<rect x="965.093" y="482.334" width="67.8995" height="67.8995" fill="white" fill-opacity="0.6" stroke="white"/>
<rect x="1033.99" y="482.334" width="67.8995" height="67.8995" stroke="white"/>
<rect x="1102.89" y="482.334" width="67.8995" height="67.8995" stroke="white"/>
<rect x="1171.79" y="482.334" width="67.8995" height="67.8995" stroke="white"/>
<rect x="1240.69" y="482.334" width="67.8995" height="67.8995" stroke="white"/>
<rect x="1309.59" y="482.334" width="67.8995" height="67.8995" stroke="white"/>
<rect x="1378.49" y="482.334" width="61.0096" height="67.8995" stroke="white"/>
<rect x="0.5" y="550.5" width="67.8995" height="67.8995" stroke="white"/>
<rect x="69.3995" y="550.5" width="67.8995" height="67.8995" stroke="white"/>
<rect x="138.299" y="550.5" width="67.8995" height="67.8995" stroke="white"/>
<rect opacity="0.12" x="207.199" y="550.5" width="67.8995" height="67.8995" fill="white" stroke="white"/>
<rect x="276.098" y="550.5" width="67.8995" height="67.8995" stroke="white"/>
<rect x="344.998" y="550.5" width="67.8995" height="67.8995" stroke="white"/>
<rect x="413.897" y="550.5" width="67.8995" height="67.8995" stroke="white"/>
<rect x="482.797" y="550.5" width="67.8995" height="67.8995" stroke="white"/>
<rect x="551.696" y="550.5" width="67.8995" height="67.8995" stroke="white"/>
<rect x="620.596" y="550.5" width="67.8995" height="67.8995" stroke="white"/>
<rect x="689.495" y="550.5" width="67.8995" height="67.8995" stroke="white"/>
<rect x="758.395" y="550.5" width="67.8995" height="67.8995" stroke="white"/>
<rect x="827.294" y="550.5" width="67.8995" height="67.8995" stroke="white"/>
<rect x="896.194" y="550.5" width="67.8995" height="67.8995" stroke="white"/>
<rect x="965.093" y="550.5" width="67.8995" height="67.8995" stroke="white"/>
<rect x="1033.99" y="550.5" width="67.8995" height="67.8995" stroke="white"/>
<rect x="1102.89" y="550.5" width="67.8995" height="67.8995" stroke="white"/>
<rect x="1171.79" y="550.5" width="67.8995" height="67.8995" stroke="white"/>
<rect x="1240.69" y="550.5" width="67.8995" height="67.8995" stroke="white"/>
<rect opacity="0.12" x="1309.59" y="550.5" width="67.8995" height="67.8995" fill="white" stroke="white"/>
<rect x="1378.49" y="550.5" width="61.0096" height="67.8995" stroke="white"/>
<defs>
<radialGradient id="paint0_radial_557_2" cx="0" cy="0" r="1" gradientUnits="userSpaceOnUse" gradientTransform="translate(76 76) rotate(90) scale(76)">
<stop stop-color="#034FAF" stop-opacity="0.6"/>
<stop offset="1" stop-color="#034FAF" stop-opacity="0"/>
</radialGradient>
<radialGradient id="paint1_radial_557_2" cx="0" cy="0" r="1" gradientUnits="userSpaceOnUse" gradientTransform="translate(1143 441) rotate(90) scale(178)">
<stop stop-color="#5BDCE4" stop-opacity="0.6"/>
<stop offset="1" stop-color="#5BDCE4" stop-opacity="0"/>
</radialGradient>
<radialGradient id="paint2_radial_557_2" cx="0" cy="0" r="1" gradientUnits="userSpaceOnUse" gradientTransform="translate(1261 261) rotate(90) scale(179)">
<stop stop-color="#034FAF" stop-opacity="0.6"/>
<stop offset="1" stop-color="#034FAF" stop-opacity="0"/>
</radialGradient>
<radialGradient id="paint3_radial_557_2" cx="0" cy="0" r="1" gradientUnits="userSpaceOnUse" gradientTransform="translate(200 440) rotate(90) scale(179)">
<stop stop-color="#034FAF" stop-opacity="0.6"/>
<stop offset="1" stop-color="#034FAF" stop-opacity="0"/>
</radialGradient>
<radialGradient id="paint4_radial_557_2" cx="0" cy="0" r="1" gradientUnits="userSpaceOnUse" gradientTransform="translate(150 263) rotate(90) scale(150)">
<stop stop-color="#5BDCE4" stop-opacity="0.6"/>
<stop offset="1" stop-color="#5BDCE4" stop-opacity="0"/>
</radialGradient>
</defs>
</svg>
