<svg width="1440" height="619" viewBox="0 0 1440 619" fill="none" xmlns="http://www.w3.org/2000/svg">
<circle opacity="0.5" cx="76" cy="76" r="76" fill="url(#paint0_radial_506_243)"/>
<circle opacity="0.5" cx="1143" cy="441" r="178" fill="url(#paint1_radial_506_243)"/>
<circle opacity="0.5" cx="1261" cy="261" r="179" fill="url(#paint2_radial_506_243)"/>
<circle opacity="0.5" cx="200" cy="440" r="179" fill="url(#paint3_radial_506_243)"/>
<circle opacity="0.5" cx="150" cy="263" r="150" fill="url(#paint4_radial_506_243)"/>
<rect x="0.5" y="0.5" width="67.8995" height="67.8995" stroke="white"/>
<rect x="69.3995" y="0.5" width="67.8995" height="67.8995" stroke="white"/>
<rect x="138.299" y="0.5" width="67.8995" height="67.8995" stroke="white"/>
<rect x="207.199" y="0.5" width="67.8995" height="67.8995" stroke="white"/>
<rect x="276.098" y="0.5" width="67.8995" height="67.8995" stroke="white"/>
<rect x="344.998" y="0.5" width="67.8995" height="67.8995" stroke="white"/>
<rect x="413.897" y="0.5" width="67.8995" height="67.8995" stroke="white"/>
<rect x="482.797" y="0.5" width="67.8995" height="67.8995" stroke="white"/>
<rect x="551.696" y="0.5" width="67.8995" height="67.8995" stroke="white"/>
<rect x="620.596" y="0.5" width="67.8995" height="67.8995" stroke="white"/>
<rect x="689.495" y="0.5" width="67.8995" height="67.8995" stroke="white"/>
<rect x="758.395" y="0.5" width="67.8995" height="67.8995" stroke="white"/>
<rect x="827.294" y="0.5" width="67.8995" height="67.8995" stroke="white"/>
<rect x="896.194" y="0.5" width="67.8995" height="67.8995" stroke="white"/>
<rect x="965.093" y="0.5" width="67.8995" height="67.8995" stroke="white"/>
<rect x="1033.99" y="0.5" width="67.8995" height="67.8995" stroke="white"/>
<rect x="1102.89" y="0.5" width="67.8995" height="67.8995" stroke="white"/>
<rect x="1171.79" y="0.5" width="67.8995" height="67.8995" stroke="white"/>
<rect x="1240.69" y="0.5" width="67.8995" height="67.8995" stroke="white"/>
<rect x="1309.59" y="0.5" width="67.8995" height="67.8995" stroke="white"/>
<rect x="1378.49" y="0.5" width="61.0096" height="67.8995" stroke="white"/>
<rect x="0.5" y="69.3995" width="67.8995" height="67.8995" stroke="white"/>
<rect x="69.3995" y="69.3995" width="67.8995" height="67.8995" stroke="white"/>
<rect x="138.299" y="69.3995" width="67.8995" height="67.8995" stroke="white"/>
<rect x="207.199" y="69.3995" width="67.8995" height="67.8995" stroke="white"/>
<rect x="276.098" y="69.3995" width="67.8995" height="67.8995" stroke="white"/>
<g opacity="0.12">
<rect x="344.998" y="69.3995" width="67.8995" height="67.8995" fill="white"/>
<rect x="344.998" y="69.3995" width="67.8995" height="67.8995" stroke="white"/>
<rect x="344.998" y="69.3995" width="67.8995" height="67.8995" stroke="black" stroke-opacity="0.2"/>
</g>
<rect x="413.897" y="69.3995" width="67.8995" height="67.8995" stroke="white"/>
<rect x="482.797" y="69.3995" width="67.8995" height="67.8995" stroke="white"/>
<rect x="551.696" y="69.3995" width="67.8995" height="67.8995" stroke="white"/>
<rect x="620.596" y="69.3995" width="67.8995" height="67.8995" stroke="white"/>
<rect x="689.495" y="69.3995" width="67.8995" height="67.8995" stroke="white"/>
<rect opacity="0.12" x="758.395" y="69.3995" width="67.8995" height="67.8995" fill="white" stroke="white"/>
<rect x="827.294" y="69.3995" width="67.8995" height="67.8995" stroke="white"/>
<rect x="896.194" y="69.3995" width="67.8995" height="67.8995" stroke="white"/>
<rect x="965.093" y="69.3995" width="67.8995" height="67.8995" stroke="white"/>
<rect x="1033.99" y="69.3995" width="67.8995" height="67.8995" stroke="white"/>
<rect x="1102.89" y="69.3995" width="67.8995" height="67.8995" stroke="white"/>
<rect x="1171.79" y="69.3995" width="67.8995" height="67.8995" stroke="white"/>
<rect x="1240.69" y="69.3995" width="67.8995" height="67.8995" stroke="white"/>
<rect x="1309.59" y="69.3995" width="67.8995" height="67.8995" stroke="white"/>
<rect x="1378.49" y="69.3995" width="61.0096" height="67.8995" stroke="white"/>
<rect x="0.5" y="138.299" width="67.8995" height="67.8995" stroke="white"/>
<rect x="69.3995" y="138.299" width="67.8995" height="67.8995" stroke="white"/>
<rect x="138.299" y="138.299" width="67.8995" height="67.8995" stroke="white"/>
<rect x="207.199" y="138.299" width="67.8995" height="67.8995" stroke="white"/>
<rect x="276.098" y="138.299" width="67.8995" height="67.8995" stroke="white"/>
<rect x="344.998" y="138.299" width="67.8995" height="67.8995" stroke="white"/>
<rect x="413.897" y="138.299" width="67.8995" height="67.8995" stroke="white"/>
<rect x="482.797" y="138.299" width="67.8995" height="67.8995" stroke="white"/>
<rect x="551.696" y="138.299" width="67.8995" height="67.8995" stroke="white"/>
<rect x="620.596" y="138.299" width="67.8995" height="67.8995" stroke="white"/>
<rect x="689.495" y="138.299" width="67.8995" height="67.8995" stroke="white"/>
<rect x="758.395" y="138.299" width="67.8995" height="67.8995" stroke="white"/>
<rect x="827.294" y="138.299" width="67.8995" height="67.8995" stroke="white"/>
<rect x="896.194" y="138.299" width="67.8995" height="67.8995" stroke="white"/>
<rect x="965.093" y="138.299" width="67.8995" height="67.8995" stroke="white"/>
<rect x="1033.99" y="138.299" width="67.8995" height="67.8995" stroke="white"/>
<rect x="1102.89" y="138.299" width="67.8995" height="67.8995" stroke="white"/>
<rect x="1171.79" y="138.299" width="67.8995" height="67.8995" stroke="white"/>
<rect x="1240.69" y="138.299" width="67.8995" height="67.8995" stroke="white"/>
<rect x="1309.59" y="138.299" width="67.8995" height="67.8995" stroke="white"/>
<rect x="1378.49" y="138.299" width="61.0096" height="67.8995" stroke="white"/>
<rect x="0.5" y="207.199" width="67.8995" height="67.8995" stroke="white"/>
<rect x="69.3995" y="207.199" width="67.8995" height="67.8995" stroke="white"/>
<rect x="138.299" y="207.199" width="67.8995" height="67.8995" stroke="white"/>
<rect x="207.199" y="207.199" width="67.8995" height="67.8995" stroke="white"/>
<rect x="276.098" y="207.199" width="67.8995" height="67.8995" stroke="white"/>
<rect x="344.998" y="207.199" width="67.8995" height="67.8995" stroke="white"/>
<rect x="413.897" y="207.199" width="67.8995" height="67.8995" stroke="white"/>
<rect x="482.797" y="207.199" width="67.8995" height="67.8995" stroke="white"/>
<rect x="551.696" y="207.199" width="67.8995" height="67.8995" stroke="white"/>
<rect x="620.596" y="207.199" width="67.8995" height="67.8995" stroke="white"/>
<rect x="689.495" y="207.199" width="67.8995" height="67.8995" stroke="white"/>
<rect x="758.395" y="207.199" width="67.8995" height="67.8995" stroke="white"/>
<rect x="827.294" y="207.199" width="67.8995" height="67.8995" stroke="white"/>
<rect x="896.194" y="207.199" width="67.8995" height="67.8995" stroke="white"/>
<rect x="965.093" y="207.199" width="67.8995" height="67.8995" stroke="white"/>
<rect x="1033.99" y="207.199" width="67.8995" height="67.8995" stroke="white"/>
<rect x="1102.89" y="207.199" width="67.8995" height="67.8995" stroke="white"/>
<rect x="1171.79" y="207.199" width="67.8995" height="67.8995" stroke="white"/>
<rect x="1240.69" y="207.199" width="67.8995" height="67.8995" stroke="white"/>
<rect x="1309.59" y="207.199" width="67.8995" height="67.8995" stroke="white"/>
<rect x="1378.49" y="207.199" width="61.0096" height="67.8995" stroke="white"/>
<rect x="0.5" y="276.098" width="67.8995" height="67.8995" stroke="white"/>
<rect x="138.299" y="276.098" width="67.8995" height="67.8995" stroke="white"/>
<rect x="207.199" y="276.098" width="67.8995" height="67.8995" stroke="white"/>
<rect x="276.098" y="276.098" width="67.8995" height="67.8995" stroke="white"/>
<rect x="344.998" y="276.098" width="67.8995" height="67.8995" stroke="white"/>
<rect x="413.897" y="276.098" width="67.8995" height="67.8995" stroke="white"/>
<rect x="482.797" y="276.098" width="67.8995" height="67.8995" stroke="white"/>
<rect x="551.696" y="276.098" width="67.8995" height="67.8995" stroke="white"/>
<rect opacity="0.12" x="620.596" y="276.098" width="67.8995" height="67.8995" fill="white" stroke="white"/>
<rect x="689.495" y="276.098" width="67.8995" height="67.8995" stroke="white"/>
<rect x="758.395" y="276.098" width="67.8995" height="67.8995" stroke="white"/>
<rect x="827.294" y="276.098" width="67.8995" height="67.8995" stroke="white"/>
<rect x="896.194" y="276.098" width="67.8995" height="67.8995" stroke="white"/>
<rect x="965.093" y="276.098" width="67.8995" height="67.8995" stroke="white"/>
<rect x="1033.99" y="276.098" width="67.8995" height="67.8995" stroke="white"/>
<rect opacity="0.12" x="1102.89" y="276.098" width="67.8995" height="67.8995" stroke="white"/>
<rect x="1171.79" y="276.098" width="67.8995" height="67.8995" stroke="white"/>
<rect opacity="0.6" x="1240.69" y="276.098" width="67.8995" height="67.8995" fill="white" stroke="white"/>
<rect x="1309.59" y="276.098" width="67.8995" height="67.8995" stroke="white"/>
<rect x="1378.49" y="276.098" width="61.0096" height="67.8995" stroke="white"/>
<rect opacity="0.6" x="69.3995" y="276.098" width="67.8995" height="67.8995" fill="white" stroke="white"/>
<rect x="0.5" y="344.998" width="67.8995" height="67.8995" stroke="white"/>
<rect x="69.3995" y="344.998" width="67.8995" height="67.8995" stroke="white"/>
<rect x="138.299" y="344.998" width="67.8995" height="67.8995" stroke="white"/>
<rect x="207.199" y="344.998" width="67.8995" height="67.8995" stroke="white"/>
<rect x="276.098" y="344.998" width="67.8995" height="67.8995" stroke="white"/>
<rect x="344.998" y="344.998" width="67.8995" height="67.8995" stroke="white"/>
<rect x="413.897" y="344.998" width="67.8995" height="67.8995" stroke="white"/>
<rect x="482.797" y="344.998" width="67.8995" height="67.8995" stroke="white"/>
<rect x="551.696" y="344.998" width="67.8995" height="67.8995" stroke="white"/>
<rect x="620.596" y="344.998" width="67.8995" height="67.8995" stroke="white"/>
<rect x="689.495" y="344.998" width="67.8995" height="67.8995" stroke="white"/>
<rect x="758.395" y="344.998" width="67.8995" height="67.8995" stroke="white"/>
<rect x="827.294" y="344.998" width="67.8995" height="67.8995" stroke="white"/>
<rect x="896.194" y="344.998" width="67.8995" height="67.8995" stroke="white"/>
<rect x="965.093" y="344.998" width="67.8995" height="67.8995" stroke="white"/>
<rect x="1033.99" y="344.998" width="67.8995" height="67.8995" stroke="white"/>
<rect x="1102.89" y="344.998" width="67.8995" height="67.8995" stroke="white"/>
<rect x="1171.79" y="344.998" width="67.8995" height="67.8995" stroke="white"/>
<rect x="1240.69" y="344.998" width="67.8995" height="67.8995" stroke="white"/>
<rect x="1309.59" y="344.998" width="67.8995" height="67.8995" stroke="white"/>
<rect x="1378.49" y="344.998" width="61.0096" height="67.8995" stroke="white"/>
<rect x="0.5" y="413.897" width="67.8995" height="67.8995" stroke="white"/>
<rect x="69.3995" y="413.897" width="67.8995" height="67.8995" stroke="white"/>
<rect x="138.299" y="413.897" width="67.8995" height="67.8995" stroke="white"/>
<rect x="207.199" y="413.897" width="67.8995" height="67.8995" stroke="white"/>
<rect x="276.098" y="413.897" width="67.8995" height="67.8995" stroke="white"/>
<rect x="344.998" y="413.897" width="67.8995" height="67.8995" stroke="white"/>
<rect x="413.897" y="413.897" width="67.8995" height="67.8995" stroke="white"/>
<rect opacity="0.3" x="482.797" y="413.897" width="67.8995" height="67.8995" fill="white" stroke="white"/>
<rect x="551.696" y="413.897" width="67.8995" height="67.8995" stroke="white"/>
<rect x="620.596" y="413.897" width="67.8995" height="67.8995" stroke="white"/>
<rect x="689.495" y="413.897" width="67.8995" height="67.8995" stroke="white"/>
<rect x="758.395" y="413.897" width="67.8995" height="67.8995" stroke="white"/>
<rect x="827.294" y="413.897" width="67.8995" height="67.8995" stroke="white"/>
<rect x="896.194" y="413.897" width="67.8995" height="67.8995" stroke="white"/>
<rect x="965.093" y="413.897" width="67.8995" height="67.8995" stroke="white"/>
<rect x="1033.99" y="413.897" width="67.8995" height="67.8995" stroke="white"/>
<rect x="1102.89" y="413.897" width="67.8995" height="67.8995" stroke="white"/>
<rect opacity="0.5" x="1171.79" y="413.897" width="67.8995" height="67.8995" fill="white" stroke="white"/>
<rect x="1240.69" y="413.897" width="67.8995" height="67.8995" stroke="white"/>
<rect x="1309.59" y="413.897" width="67.8995" height="67.8995" stroke="white"/>
<rect x="1378.49" y="413.897" width="61.0096" height="67.8995" stroke="white"/>
<rect x="0.5" y="482.334" width="67.8995" height="67.8995" stroke="white"/>
<rect x="69.3995" y="482.334" width="67.8995" height="67.8995" stroke="white"/>
<rect x="138.299" y="482.334" width="67.8995" height="67.8995" stroke="white"/>
<rect opacity="0.5" x="207.199" y="482.334" width="67.8995" height="67.8995" fill="white" stroke="white"/>
<rect x="276.098" y="482.334" width="67.8995" height="67.8995" stroke="white"/>
<rect x="344.998" y="482.334" width="67.8995" height="67.8995" stroke="white"/>
<rect x="413.897" y="482.334" width="67.8995" height="67.8995" stroke="white"/>
<rect x="482.797" y="482.334" width="67.8995" height="67.8995" stroke="white"/>
<rect x="551.696" y="482.334" width="67.8995" height="67.8995" stroke="white"/>
<rect x="620.596" y="482.334" width="67.8995" height="67.8995" stroke="white"/>
<rect x="689.495" y="482.334" width="67.8995" height="67.8995" stroke="white"/>
<rect x="758.395" y="482.334" width="67.8995" height="67.8995" stroke="white"/>
<rect x="827.294" y="482.334" width="67.8995" height="67.8995" stroke="white"/>
<rect x="896.194" y="482.334" width="67.8995" height="67.8995" stroke="white"/>
<rect x="965.093" y="482.334" width="67.8995" height="67.8995" fill="white" fill-opacity="0.6" stroke="white"/>
<rect x="1033.99" y="482.334" width="67.8995" height="67.8995" stroke="white"/>
<rect x="1102.89" y="482.334" width="67.8995" height="67.8995" stroke="white"/>
<rect x="1171.79" y="482.334" width="67.8995" height="67.8995" stroke="white"/>
<rect x="1240.69" y="482.334" width="67.8995" height="67.8995" stroke="white"/>
<rect x="1309.59" y="482.334" width="67.8995" height="67.8995" stroke="white"/>
<rect x="1378.49" y="482.334" width="61.0096" height="67.8995" stroke="white"/>
<rect x="0.5" y="550.5" width="67.8995" height="67.8995" stroke="white"/>
<rect x="69.3995" y="550.5" width="67.8995" height="67.8995" stroke="white"/>
<rect x="138.299" y="550.5" width="67.8995" height="67.8995" stroke="white"/>
<rect opacity="0.12" x="207.199" y="550.5" width="67.8995" height="67.8995" fill="white" stroke="white"/>
<rect x="276.098" y="550.5" width="67.8995" height="67.8995" stroke="white"/>
<rect x="344.998" y="550.5" width="67.8995" height="67.8995" stroke="white"/>
<rect x="413.897" y="550.5" width="67.8995" height="67.8995" stroke="white"/>
<rect x="482.797" y="550.5" width="67.8995" height="67.8995" stroke="white"/>
<rect x="551.696" y="550.5" width="67.8995" height="67.8995" stroke="white"/>
<rect x="620.596" y="550.5" width="67.8995" height="67.8995" stroke="white"/>
<rect x="689.495" y="550.5" width="67.8995" height="67.8995" stroke="white"/>
<rect x="758.395" y="550.5" width="67.8995" height="67.8995" stroke="white"/>
<rect x="827.294" y="550.5" width="67.8995" height="67.8995" stroke="white"/>
<rect x="896.194" y="550.5" width="67.8995" height="67.8995" stroke="white"/>
<rect x="965.093" y="550.5" width="67.8995" height="67.8995" stroke="white"/>
<rect x="1033.99" y="550.5" width="67.8995" height="67.8995" stroke="white"/>
<rect x="1102.89" y="550.5" width="67.8995" height="67.8995" stroke="white"/>
<rect x="1171.79" y="550.5" width="67.8995" height="67.8995" stroke="white"/>
<rect x="1240.69" y="550.5" width="67.8995" height="67.8995" stroke="white"/>
<rect opacity="0.12" x="1309.59" y="550.5" width="67.8995" height="67.8995" fill="white" stroke="white"/>
<rect x="1378.49" y="550.5" width="61.0096" height="67.8995" stroke="white"/>
<rect x="1167.31" y="164.522" width="64.3684" height="64.3684" rx="3.75" transform="rotate(-17.363 1167.31 164.522)" fill="#F3F8FF" fill-opacity="0.5" stroke="#C6D2FF" stroke-width="0.5"/>
<path d="M1213.65 204.788L1198.74 205.269L1184.96 171.936L1218.55 161.432L1226.21 196.671L1213.65 204.785L1213.65 204.788Z" fill="#353495"/>
<path d="M1222.91 195.309L1216.37 165.195L1202.63 169.488L1212.76 201.867L1222.91 195.309Z" fill="#3D449C"/>
<path d="M1196.82 185.266L1198.51 189.355L1207.93 186.412L1206.61 182.206L1196.82 185.266ZM1193.4 176.992L1195.1 181.079L1205.26 177.901L1203.95 173.695L1193.4 176.992ZM1210.03 193.127L1210.01 193.138L1204.93 193.338L1203.58 190.078L1199.36 191.398L1202.02 197.815L1211.38 197.513L1211.4 197.501L1210.03 193.127L1210.03 193.127Z" fill="#EEEDEA"/>
<path d="M1216.37 179.154L1214.47 170.406L1203.93 173.7L1205.25 177.906L1211.17 176.054L1212.14 180.481L1206.59 182.214L1207.91 186.42L1213.09 184.802L1214.3 190.408L1210.01 193.141L1211.38 197.516L1219.25 192.43L1219.09 191.7L1216.62 180.319L1216.37 179.158L1216.37 179.154Z" fill="white"/>
<rect x="164.345" y="187.046" width="64.3684" height="64.3684" rx="3.75" transform="rotate(-32.6217 164.345 187.046)" fill="#F3F8FF" fill-opacity="0.5" stroke="#C6D2FF" stroke-width="0.5"/>
<path d="M217.187 183.238C216.709 183.353 216.221 183.486 215.726 183.634C215.615 183.309 215.502 182.992 215.383 182.684C213.443 177.624 210.536 174.409 207.72 174.54C205.021 174.665 202.556 177.914 201.113 182.831C200.975 183.304 200.844 183.793 200.724 184.297C200.386 184.23 200.054 184.171 199.728 184.118C194.378 183.274 190.14 184.185 188.848 186.688C187.608 189.09 189.192 192.847 192.731 196.553C193.074 196.911 193.435 197.27 193.812 197.627C193.417 198.073 193.043 198.52 192.696 198.962C189.588 202.917 188.432 206.738 189.883 209.006C191.335 211.273 195.628 211.941 200.708 210.698C201.109 210.6 201.519 210.488 201.934 210.364C202.115 210.896 202.302 211.411 202.502 211.903C204.375 216.571 207.107 219.481 209.798 219.357C212.576 219.229 215.21 215.846 216.671 210.825C216.787 210.428 216.894 210.018 216.993 209.594C217.545 209.705 218.085 209.797 218.611 209.871C223.591 210.58 227.478 209.665 228.711 207.273C229.987 204.801 228.373 200.829 224.752 197.058C224.476 196.77 224.183 196.481 223.878 196.193C224.072 195.97 224.259 195.746 224.44 195.525C227.853 191.317 229.187 187.192 227.668 184.819C226.149 182.446 222.166 182.03 217.186 183.237L217.187 183.238ZM202.952 183.37C204.188 179.156 206.181 176.53 207.809 176.454C209.542 176.373 211.917 179.002 213.594 183.37C213.701 183.648 213.804 183.935 213.904 184.23C212.105 184.871 210.231 185.692 208.341 186.666C206.356 185.852 204.42 185.196 202.595 184.723C202.707 184.258 202.826 183.807 202.954 183.369L202.952 183.37ZM201.92 201.355C201.758 200.026 201.642 198.662 201.577 197.28C201.513 195.895 201.502 194.525 201.543 193.19C202.612 192.386 203.737 191.605 204.901 190.86C206.071 190.11 207.254 189.417 208.431 188.784C209.647 189.307 210.878 189.889 212.112 190.525C213.359 191.169 214.553 191.834 215.682 192.514C215.839 193.84 215.951 195.211 216.016 196.612C216.08 198.014 216.1 199.38 216.075 200.697C215.004 201.496 213.874 202.278 212.693 203.034C211.512 203.79 210.35 204.482 209.202 205.115C207.963 204.591 206.717 204.007 205.48 203.367C204.248 202.73 203.057 202.056 201.919 201.354L201.92 201.355ZM202.279 203.802C203.035 204.239 203.811 204.662 204.602 205.07C205.408 205.486 206.22 205.881 207.029 206.251C205.703 206.905 204.417 207.466 203.189 207.92C202.834 206.629 202.527 205.246 202.278 203.8L202.279 203.802ZM199.847 200.006C198.664 199.192 197.559 198.354 196.554 197.506C197.479 196.574 198.501 195.642 199.604 194.724C199.604 195.596 199.622 196.48 199.663 197.369C199.704 198.254 199.767 199.136 199.847 200.006ZM217.932 196.524C217.89 195.611 217.828 194.707 217.747 193.821C218.988 194.648 220.127 195.489 221.144 196.333C220.208 197.284 219.155 198.243 218.003 199.19C217.998 198.316 217.974 197.429 217.932 196.524ZM215.339 190.093C214.58 189.662 213.797 189.239 212.993 188.822C212.206 188.417 211.419 188.031 210.635 187.668C211.938 187.048 213.223 186.511 214.465 186.065C214.807 187.317 215.101 188.668 215.339 190.093ZM202.202 186.604C203.463 186.933 204.785 187.357 206.145 187.864C205.383 188.302 204.624 188.762 203.869 189.245C203.115 189.728 202.391 190.217 201.678 190.72C201.793 189.282 201.97 187.901 202.203 186.601L202.202 186.604ZM190.552 187.568C191.347 186.027 194.811 185.28 199.431 186.013C199.727 186.059 200.029 186.114 200.333 186.173C199.989 188.055 199.764 190.09 199.664 192.217C197.991 193.519 196.461 194.873 195.124 196.229C194.772 195.895 194.436 195.563 194.12 195.231C191.086 192.057 189.806 189.017 190.553 187.57L190.552 187.568ZM201.372 208.531C200.992 208.645 200.617 208.748 200.251 208.836C198.005 209.385 195.96 209.541 194.346 209.315C192.896 209.112 191.913 208.619 191.499 207.972C190.618 206.595 191.547 203.528 194.204 200.144C194.526 199.733 194.874 199.319 195.243 198.901C196.701 200.137 198.35 201.347 200.139 202.495C200.438 204.631 200.853 206.668 201.372 208.529L201.372 208.531ZM214.829 210.29C214.183 212.51 213.297 214.36 212.294 215.645C211.394 216.801 210.475 217.406 209.708 217.441C208.076 217.517 205.882 215.18 204.279 211.187C204.094 210.73 203.919 210.253 203.752 209.757C205.52 209.108 207.39 208.258 209.316 207.235C211.303 208.037 213.263 208.688 215.125 209.165C215.033 209.552 214.935 209.928 214.828 210.289L214.829 210.29ZM215.506 207.285C214.211 206.949 212.864 206.524 211.49 206.02C212.232 205.585 212.98 205.128 213.729 204.648C214.478 204.169 215.25 203.651 215.978 203.138C215.882 204.609 215.725 205.999 215.507 207.287L215.506 207.285ZM226.747 203.256C227.297 204.613 227.363 205.712 227.011 206.395C226.261 207.846 223.141 208.58 218.882 207.974C218.394 207.905 217.891 207.819 217.378 207.716C217.698 205.87 217.895 203.835 217.971 201.667C219.693 200.336 221.25 198.967 222.583 197.602C222.859 197.864 223.122 198.124 223.372 198.386C224.973 200.054 226.132 201.747 226.747 203.256ZM222.956 194.318C222.792 194.519 222.623 194.719 222.448 194.923C221.001 193.716 219.325 192.519 217.47 191.36C217.185 189.253 216.789 187.268 216.29 185.465C216.748 185.33 217.198 185.207 217.641 185.1C221.908 184.066 225.179 184.481 226.057 185.852C226.992 187.312 225.903 190.682 222.956 194.318Z" fill="#53C1DE"/>
<path d="M210.699 200.12C212.563 198.927 213.107 196.449 211.914 194.585C210.721 192.721 208.243 192.177 206.379 193.37C204.516 194.563 203.972 197.041 205.165 198.905C206.358 200.769 208.836 201.313 210.699 200.12Z" fill="#53C1DE"/>
<rect x="1259.68" y="413.343" width="64.3684" height="64.3684" rx="3.75" transform="rotate(31.1961 1259.68 413.343)" fill="#F3F8FF" fill-opacity="0.5" stroke="#C6D2FF" stroke-width="0.5"/>
<path d="M1260.17 474.728L1249.94 463.87L1265.81 431.479L1295.91 449.71L1274.57 478.775L1260.17 474.728Z" fill="#F73311"/>
<path d="M1274.57 478.776L1295.91 449.71L1280.85 440.587L1260.17 474.728L1274.57 478.776L1274.57 478.776Z" fill="#FE4B16"/>
<path d="M1270.16 458.274L1272.44 454.505L1267.45 451.485L1269.44 447.417L1274.77 450.645L1277.06 446.877L1267.61 441.154L1267.08 442.219L1261.72 453.167L1270.15 458.274L1270.16 458.274Z" fill="#EBEBEB"/>
<path d="M1266.51 464.294L1266.49 464.288L1262.98 460.613L1264.53 457.444L1260.75 455.153L1257.69 461.391L1264.12 468.209L1264.14 468.215L1266.51 464.294L1266.51 464.294Z" fill="#EBEBEB"/>
<path d="M1281.19 459.802L1272.42 454.497L1270.14 458.266L1274.78 461.077L1271.39 465.699L1266.5 464.289L1264.12 468.21L1273.14 470.747L1273.59 470.145L1280.48 460.759L1281.19 459.803L1281.19 459.802Z" fill="white"/>
<path d="M1286.49 452.586L1277.04 446.869L1274.76 450.637L1283.87 456.15L1284.45 455.349L1285.78 453.542L1286.49 452.586L1286.49 452.586Z" fill="white"/>
<rect x="76.3402" y="515.723" width="64.3684" height="64.3684" rx="3.75" transform="rotate(-29.18 76.3402 515.723)" fill="#F3F8FF" fill-opacity="0.5" stroke="#C6D2FF" stroke-width="0.5"/>
<path d="M129.938 545.647L115.45 549.172L95.1323 519.365L125.864 502.204L140.579 535.132" fill="#D8BA33"/>
<path d="M137.068 534.469L124.49 506.332L111.929 513.347L128.472 542.971" fill="#FCDB41"/>
<path d="M125.418 515.663L123.704 511.819L114.775 516.805L115.85 518.73L116.924 520.654L119.125 524.594L120.226 526.567L121.274 528.442L126.003 525.383L128.436 530.781L124.6 534.398L126.833 538.398L132.897 532.395L132.589 531.717L127.841 521.081L127.356 519.997L126.319 520.577L122.389 522.771L120.331 518.652L125.418 515.663Z" fill="#EBEBEB"/>
<path d="M119.946 535.955L117.297 536.583L115.939 534.519L113.214 535.467L117.126 541.202L125.3 539.219L124.267 537.37L123.066 535.219L113.257 517.653L109.987 519.479L119.946 535.955Z" fill="#EBEBEB"/>
<rect x="363.472" y="358.343" width="64.3684" height="64.3684" rx="3.75" transform="rotate(30.9758 363.472 358.343)" fill="#F3F8FF" fill-opacity="0.5" stroke="#C6D2FF" stroke-width="0.5"/>
<path d="M381.31 391.012C376.181 387.933 371.43 388.579 367.062 392.95C370.529 391.534 373.352 391.917 375.531 394.1C376.775 395.345 377.182 397.038 377.632 398.91C378.366 401.961 379.216 405.492 383.984 408.354C389.114 411.433 393.864 410.787 398.233 406.416C394.765 407.832 391.943 407.45 389.763 405.266C388.519 404.022 388.113 402.329 387.662 400.456C386.928 397.405 386.077 393.874 381.31 391.012ZM364.747 396.806C359.618 393.727 354.867 394.373 350.499 398.745C353.966 397.328 356.789 397.711 358.968 399.894C360.212 401.139 360.619 402.832 361.069 404.705C361.803 407.756 362.653 411.286 367.421 414.149C372.551 417.228 377.302 416.582 381.67 412.21C378.202 413.627 375.38 413.244 373.201 411.061C371.956 409.816 371.55 408.123 371.1 406.251C370.365 403.199 369.516 399.669 364.747 396.806Z" fill="url(#paint5_linear_506_243)"/>
<defs>
<radialGradient id="paint0_radial_506_243" cx="0" cy="0" r="1" gradientUnits="userSpaceOnUse" gradientTransform="translate(76 76) rotate(90) scale(76)">
<stop stop-color="#034FAF" stop-opacity="0.6"/>
<stop offset="1" stop-color="#034FAF" stop-opacity="0"/>
</radialGradient>
<radialGradient id="paint1_radial_506_243" cx="0" cy="0" r="1" gradientUnits="userSpaceOnUse" gradientTransform="translate(1143 441) rotate(90) scale(178)">
<stop stop-color="#5BDCE4" stop-opacity="0.6"/>
<stop offset="1" stop-color="#5BDCE4" stop-opacity="0"/>
</radialGradient>
<radialGradient id="paint2_radial_506_243" cx="0" cy="0" r="1" gradientUnits="userSpaceOnUse" gradientTransform="translate(1261 261) rotate(90) scale(179)">
<stop stop-color="#034FAF" stop-opacity="0.6"/>
<stop offset="1" stop-color="#034FAF" stop-opacity="0"/>
</radialGradient>
<radialGradient id="paint3_radial_506_243" cx="0" cy="0" r="1" gradientUnits="userSpaceOnUse" gradientTransform="translate(200 440) rotate(90) scale(179)">
<stop stop-color="#034FAF" stop-opacity="0.6"/>
<stop offset="1" stop-color="#034FAF" stop-opacity="0"/>
</radialGradient>
<radialGradient id="paint4_radial_506_243" cx="0" cy="0" r="1" gradientUnits="userSpaceOnUse" gradientTransform="translate(150 263) rotate(90) scale(150)">
<stop stop-color="#5BDCE4" stop-opacity="0.6"/>
<stop offset="1" stop-color="#5BDCE4" stop-opacity="0"/>
</radialGradient>
<linearGradient id="paint5_linear_506_243" x1="356.655" y1="386.12" x2="378.298" y2="425.393" gradientUnits="userSpaceOnUse">
<stop stop-color="#2298BD"/>
<stop offset="1" stop-color="#0ED7B5"/>
</linearGradient>
</defs>
</svg>
