<svg width="90" height="90" viewBox="0 0 90 90" fill="none" xmlns="http://www.w3.org/2000/svg">
<rect x="0.345335" y="35.0458" width="64.3684" height="64.3684" rx="3.75" transform="rotate(-32.6217 0.345335 35.0458)" fill="#F3F8FF" fill-opacity="0.5" stroke="#C6D2FF" stroke-width="0.5"/>
<path d="M53.1871 31.2384C52.709 31.3534 52.2213 31.4864 51.7262 31.6336C51.6149 31.3088 51.5018 30.9922 51.3826 30.6843C49.4429 25.6244 46.5363 22.4092 43.7204 22.5401C41.0209 22.6649 38.5556 25.9143 37.1128 30.8313C36.9746 31.304 36.8443 31.7929 36.7236 32.2968C36.3862 32.2299 36.054 32.1714 35.7278 32.1185C30.3778 31.2735 26.1402 32.1848 24.8476 34.6883C23.6076 37.0897 25.1921 40.8469 28.7312 44.5531C29.0737 44.9114 29.435 45.2695 29.8122 45.6269C29.4167 46.0734 29.0426 46.5202 28.6957 46.9615C25.5882 50.9166 24.4319 54.7379 25.8833 57.0055C27.3348 59.2732 31.6284 59.9409 36.7077 58.6984C37.1089 58.5995 37.5185 58.4882 37.934 58.3638C38.1146 58.8964 38.3022 59.4105 38.5018 59.9028C40.3749 64.5715 43.1071 67.481 45.7978 67.3571C48.5756 67.2294 51.2097 63.846 52.671 58.8253C52.7869 58.4281 52.8942 58.0176 52.993 57.5937C53.545 57.7048 54.0853 57.7975 54.611 57.8712C59.5912 58.5804 63.4775 57.6653 64.7113 55.2726C65.9867 52.8013 64.3732 48.8292 60.7521 45.0577C60.4761 44.77 60.1829 44.4814 59.8782 44.1932C60.0724 43.9699 60.2594 43.7464 60.4404 43.5245C63.8533 39.3174 65.1871 35.1915 63.6682 32.8185C62.1493 30.4455 58.1656 30.0297 53.186 31.2367L53.1871 31.2384ZM38.9523 31.3701C40.1875 27.1565 42.1813 24.5295 43.8092 24.4541C45.5419 24.373 47.9174 27.0015 49.5935 31.3697C49.7007 31.6476 49.8044 31.9349 49.9035 32.2297C48.1054 32.8715 46.2306 33.6919 44.3409 34.6657C42.3561 33.852 40.4203 33.1958 38.595 32.7233C38.7072 32.2578 38.8263 31.8067 38.954 31.369L38.9523 31.3701ZM37.9202 49.3554C37.7577 48.0261 37.6416 46.6624 37.577 45.2798C37.5131 43.8945 37.5017 42.5251 37.5431 41.1902C38.6124 40.3856 39.7367 39.6046 40.9007 38.8596C42.0713 38.1104 43.2541 37.4169 44.4308 36.784C45.6471 37.3068 46.8777 37.8888 48.1123 38.5248C49.3594 39.1694 50.5532 39.8339 51.6817 40.5142C51.8393 41.8396 51.9509 43.2109 52.0156 44.6122C52.0804 46.0135 52.0995 47.3804 52.075 48.6974C51.0042 49.4959 49.8737 50.2784 48.6931 51.0341C47.5124 51.7898 46.35 52.4819 45.2019 53.1154C43.9631 52.5905 42.7171 52.0066 41.4804 51.3672C40.2475 50.7301 39.0572 50.0563 37.9191 49.3538L37.9202 49.3554ZM38.2788 51.8015C39.0352 52.2392 39.8105 52.6623 40.6021 53.0704C41.4078 53.4858 42.2195 53.881 43.0294 54.2513C41.703 54.9046 40.417 55.4661 39.1891 55.9197C38.8342 54.6286 38.5268 53.2459 38.2778 51.7999L38.2788 51.8015ZM35.8474 48.0065C34.6635 47.1918 33.5594 46.3544 32.5541 45.5056C33.4786 44.5744 34.5012 43.6417 35.6039 42.7237C35.6036 43.5962 35.6223 44.48 35.6631 45.3686C35.7044 46.2545 35.7667 47.1364 35.8474 48.0065ZM53.9324 44.524C53.8899 43.6106 53.828 42.7072 53.7465 41.8212C54.9879 42.6485 56.1273 43.4893 57.1437 44.3333C56.2078 45.2836 55.155 46.2427 54.0027 47.19C53.9975 46.3164 53.9739 45.4286 53.9324 44.524ZM51.3391 38.0932C50.5799 37.6621 49.7974 37.2388 48.9933 36.8223C48.2056 36.4165 47.4191 36.0312 46.6349 35.6679C47.9381 35.0483 49.2232 34.5111 50.4652 34.065C50.8071 35.3172 51.1013 36.6683 51.3391 38.0932ZM38.2024 34.6035C39.4625 34.9333 40.7853 35.3572 42.1446 35.864C41.3829 36.302 40.6236 36.762 39.8694 37.2448C39.1152 37.7275 38.3912 38.2169 37.6784 38.7202C37.7928 37.2821 37.9695 35.9007 38.203 34.6008L38.2024 34.6035ZM26.5519 35.5682C27.3473 34.0266 30.8113 33.2804 35.4314 34.0126C35.7275 34.0589 36.0288 34.1135 36.3334 34.1732C35.9893 36.0554 35.7641 38.0902 35.6638 40.2171C33.9911 41.5188 32.4605 42.8733 31.1238 44.2287C30.7715 43.8955 30.4362 43.5632 30.1196 43.2306C27.0862 40.0566 25.8055 37.0172 26.5529 35.5699L26.5519 35.5682ZM37.3716 56.5313C36.9917 56.6448 36.6169 56.748 36.2512 56.8359C34.0047 57.385 31.9595 57.5413 30.3461 57.3151C28.8958 57.1118 27.913 56.6187 27.4988 55.9715C26.6179 54.5952 27.547 51.5276 30.2043 48.1436C30.5259 47.7326 30.874 47.3189 31.2431 46.9011C32.7011 48.1367 34.3502 49.3467 36.1392 50.4954C36.4381 52.6308 36.8534 54.6682 37.3722 56.5285L37.3716 56.5313ZM50.8292 58.2903C50.1825 60.51 49.2965 62.3596 48.2943 63.6446C47.3937 64.8009 46.4747 65.4056 45.7079 65.4415C44.0756 65.5173 41.8819 63.1802 40.2787 59.1874C40.0945 58.7301 39.9188 58.2532 39.7519 57.7566C41.5198 57.1082 43.3896 56.258 45.3161 55.2347C47.3032 56.0374 49.2635 56.6875 51.125 57.165C51.033 57.5516 50.9345 57.9282 50.8281 58.2886L50.8292 58.2903ZM51.506 55.2852C50.2113 54.9493 48.8643 54.5243 47.4901 54.02C48.2324 53.585 48.9795 53.128 49.7287 52.6485C50.4779 52.1689 51.2499 51.6513 51.9777 51.1383C51.8819 52.6093 51.7249 53.9993 51.507 55.2868L51.506 55.2852ZM62.7466 51.2565C63.2969 52.6134 63.3634 53.7118 63.0108 54.3948C62.2612 55.8459 59.1405 56.5798 54.8821 55.9744C54.3943 55.9047 53.8914 55.8187 53.3778 55.7161C53.698 53.8703 53.8946 51.835 53.9709 49.6669C55.6932 48.3358 57.2499 46.9669 58.5829 45.6022C58.8589 45.864 59.1223 46.1244 59.3724 46.3863C60.9728 48.0542 62.132 49.7474 62.7466 51.2565ZM58.9559 42.3176C58.7924 42.5189 58.6235 42.719 58.4478 42.9234C57.0008 41.7161 55.3245 40.5188 53.4702 39.3601C53.185 37.2535 52.7886 35.2677 52.2902 33.465C52.7482 33.3298 53.1977 33.2071 53.6409 33.1003C57.9084 32.0662 61.1795 32.4808 62.0572 33.8521C62.9916 35.312 61.9026 38.6823 58.9559 42.3176Z" fill="#53C1DE"/>
<path d="M46.6994 48.1196C48.5633 46.9266 49.1071 44.4486 47.9141 42.5848C46.7212 40.721 44.2432 40.1772 42.3794 41.3701C40.5156 42.5631 39.9717 45.0411 41.1647 46.9049C42.3576 48.7687 44.8356 49.3125 46.6994 48.1196Z" fill="#53C1DE"/>
</svg>
