<svg width="89" height="89" viewBox="0 0 89 89" fill="none" xmlns="http://www.w3.org/2000/svg">
<rect x="33.4719" y="0.343015" width="64.3684" height="64.3684" rx="3.75" transform="rotate(30.9758 33.4719 0.343015)" fill="#F3F8FF" fill-opacity="0.5" stroke="#C6D2FF" stroke-width="0.5"/>
<path d="M51.3101 33.0121C46.1807 29.9329 41.43 30.5789 37.0619 34.9504C40.5291 33.5339 43.3517 33.9168 45.531 36.1C46.7752 37.3448 47.1819 39.0376 47.6321 40.9102C48.3662 43.9615 49.2157 47.4917 53.9844 50.3543C59.1138 53.4334 63.8645 52.7874 68.2325 48.416C64.7653 49.8325 61.9428 49.4495 59.7634 47.2664C58.5193 46.0216 58.1126 44.3287 57.6624 42.4561C56.9282 39.4049 56.0773 35.8738 51.3101 33.0121ZM34.7472 38.8065C29.6178 35.7274 24.8671 36.3734 20.499 40.7448C23.9662 39.3283 26.7888 39.7112 28.9681 41.8944C30.2122 43.1392 30.619 44.8321 31.0691 46.7046C31.8033 49.7559 32.6527 53.2861 37.4215 56.1487C42.5509 59.2278 47.3016 58.5818 51.6696 54.2104C48.2024 55.6269 45.3799 55.244 43.2005 53.0608C41.9564 51.816 41.5497 50.1232 41.0995 48.2506C40.3653 45.1993 39.5159 41.6691 34.7472 38.8065Z" fill="url(#paint0_linear_557_5)"/>
<defs>
<linearGradient id="paint0_linear_557_5" x1="26.6548" y1="28.1195" x2="48.298" y2="67.3934" gradientUnits="userSpaceOnUse">
<stop stop-color="#2298BD"/>
<stop offset="1" stop-color="#0ED7B5"/>
</linearGradient>
</defs>
</svg>
